<svg width="518" height="164" viewBox="0 0 518 164" fill="none" xmlns="http://www.w3.org/2000/svg">
<path d="M490.15 144.161C496.271 107.831 517.614 93.9862 518 93.7433C517.558 93.8034 493.778 97.5559 480.482 124.127C480.72 123.097 488.643 89.7785 496.543 65.1141C495.886 65.6587 474.984 83.6645 467.073 125.942C467.073 125.942 463.049 70.4712 456.35 52.571C456.35 52.571 459.025 91.9424 452.326 106.257C452.326 106.257 441.603 93.7286 438.917 49C438.917 49 432.218 75.8431 434.905 115.2C434.905 115.2 426.869 81.2295 418.821 68.7011C419.093 69.3966 430.779 99.3728 422.845 122.372C422.845 122.372 418.821 86.5867 398.725 70.4873C399.099 71.2442 413.041 98.8588 408.972 120.799C406.297 107.8 399.224 79.2031 385.554 59.8037C386.075 61.196 398.045 93.1679 387.402 108.799C384.432 93.5764 375.364 64.2224 367.793 55.0526C367.793 55.0526 376.022 68.6704 380.193 101.929C376.521 92.5178 371.341 78.067 368.042 63.8432C368.042 63.8432 367.804 82.8782 375.081 106.998C374.22 104.698 364.857 80.3218 353.545 70.1535C353.545 70.1535 359.836 83.5897 362.919 102.171C358.963 89.6877 353.591 78.2633 346.336 71.5445C346.642 71.953 351.754 78.7318 357.07 95.0582C344.658 75.8417 332.111 85.3131 330.977 89.8533C330.977 89.8533 337.778 85.3144 345.712 91.3657C351.914 96.0968 355.007 103.471 358.146 112.882V112.897C353.011 111.187 346.539 107.086 342.311 97.4184C342.311 97.4184 341.654 106.24 347.4 121.204C343.118 115.616 337.334 108.964 330.347 103.013C329.781 98.7507 328.797 94.3267 327.22 89.8533C327.22 89.8533 327.369 94.3013 327.119 100.382C325.108 98.8201 323.011 97.3303 320.831 95.9513C321.234 96.3437 323.806 98.8614 326.994 102.93C326.758 107.067 326.327 111.712 325.559 116.146C322.816 112.685 320.579 108.484 319.641 103.472C319.641 103.472 319.645 111.465 324.169 122.412C323.925 123.282 323.668 124.133 323.385 124.942C320.33 121.724 315.691 115.451 312.84 104.986C312.84 104.986 312.303 107.89 312.411 112.435C310.742 106.982 308.349 100.831 304.906 94.3947C304.906 94.3947 308.306 114.065 306.039 126.17C306.039 126.17 296.971 111.039 295.838 76.2368C295.838 76.2368 293.177 86.026 293.465 102.861C291.302 95.2838 287.828 85.4733 282.236 73.2105C282.236 73.2105 289.037 101.96 285.636 120.118C285.636 120.118 286.769 98.9335 272.034 70.1842C272.034 70.1842 277.028 89.2539 276.254 106.959C274.549 83.252 266.367 68.6717 266.367 68.6717C268.634 86.8296 260.7 101.961 260.7 101.961C258.433 94.3961 257.3 79.2645 257.3 79.2645C255.033 89.8559 252.766 100.449 252.766 100.449C253.899 91.3698 250.499 73.2119 250.499 73.2119C249.669 89.8292 245.196 108.057 242.859 116.635C238.92 97.0739 245.966 70.1855 245.966 70.1855C231.231 98.9349 232.364 120.119 232.364 120.119C228.964 101.961 235.764 73.2119 235.764 73.2119C230.172 85.4746 226.698 95.2851 224.535 102.862C224.823 86.0273 222.162 76.2382 222.162 76.2382C221.029 111.04 211.961 126.172 211.961 126.172C209.694 114.066 213.094 94.3961 213.094 94.3961C209.651 100.832 207.258 106.983 205.589 112.437C205.697 107.891 205.16 104.988 205.16 104.988C202.31 115.452 197.67 121.724 194.615 124.944C194.332 124.135 194.075 123.284 193.831 122.414C198.355 111.466 198.359 103.474 198.359 103.474C197.421 108.485 195.184 112.686 192.441 116.148C191.673 111.713 191.241 107.069 191.006 102.932C194.194 98.8628 196.767 96.3451 197.169 95.9526C194.989 97.3316 192.892 98.8227 190.881 100.383C190.631 94.3026 190.78 89.8546 190.78 89.8546C189.203 94.328 188.219 98.752 187.653 103.014C180.667 108.966 174.882 115.618 170.6 121.206C176.347 106.241 175.689 97.4197 175.689 97.4197C171.461 107.089 164.989 111.19 159.854 112.898V112.884C162.994 103.472 166.087 96.0981 172.288 91.3671C180.222 85.3145 187.023 89.8546 187.023 89.8546C185.89 85.3158 173.342 75.843 160.93 95.0595C166.246 78.7332 171.358 71.9544 171.664 71.5459C164.41 78.2646 159.037 89.6877 155.081 102.172C158.164 83.591 164.455 70.1548 164.455 70.1548C153.143 80.3231 143.78 104.699 142.919 106.999C150.196 82.8795 149.958 63.8446 149.958 63.8446C146.66 78.0684 141.48 92.5178 137.807 101.93C141.978 68.6717 150.207 55.054 150.207 55.054C142.635 64.2237 133.568 93.5778 130.598 108.8C119.955 93.1693 131.924 61.1974 132.446 59.805C118.776 79.2031 111.703 107.802 109.028 120.8C104.959 98.8601 118.901 71.2455 119.275 70.4886C99.178 86.588 95.155 122.374 95.155 122.374C87.221 99.3741 98.907 69.3993 99.179 68.7024C91.131 81.2309 83.095 115.201 83.095 115.201C85.781 75.8444 79.083 49.0013 79.083 49.0013C76.397 93.7299 65.674 106.258 65.674 106.258C58.975 91.9438 61.65 52.5723 61.65 52.5723C54.951 70.4726 50.927 125.943 50.927 125.943C43.015 83.6671 22.114 65.6601 21.457 65.1154C29.357 89.7798 37.28 123.099 37.518 124.128C24.222 97.5572 0.442 93.8047 0 93.7446C0.385 93.9863 21.729 107.832 27.85 144.163C15.563 135.779 2.267 136.763 2.267 136.763C2.267 136.763 17.002 138.276 29.471 164H488.53C500.998 138.277 515.733 136.763 515.733 136.763C515.733 136.763 502.437 135.779 490.15 144.161ZM178.273 127.487C180.19 120.103 183.68 113.51 187.147 108.278C186.88 112.934 187.08 117.31 187.521 121.238C184.184 124.127 180.764 126.192 178.273 127.487ZM330.478 121.238C330.919 117.31 331.119 112.934 330.852 108.278C334.319 113.51 337.809 120.103 339.726 127.487C337.235 126.192 333.815 124.127 330.478 121.238Z" fill="#00892C"/>
<path d="M490.15 144.161C496.271 107.831 517.614 93.9862 518 93.7433C517.558 93.8034 493.778 97.5559 480.482 124.127C480.72 123.097 488.643 89.7785 496.543 65.1141C495.886 65.6587 474.984 83.6645 467.073 125.942C467.073 125.942 463.049 70.4712 456.35 52.571C456.35 52.571 459.025 91.9424 452.326 106.257C452.326 106.257 441.603 93.7286 438.917 49C438.917 49 432.218 75.8431 434.905 115.2C434.905 115.2 426.869 81.2295 418.821 68.7011C419.093 69.3966 430.779 99.3728 422.845 122.372C422.845 122.372 418.821 86.5867 398.725 70.4873C399.099 71.2442 413.041 98.8588 408.972 120.799C406.297 107.8 399.224 79.2031 385.554 59.8037C386.075 61.196 398.045 93.1679 387.402 108.799C384.432 93.5764 375.364 64.2224 367.793 55.0526C367.793 55.0526 376.022 68.6704 380.193 101.929C376.521 92.5178 371.341 78.067 368.042 63.8432C368.042 63.8432 367.804 82.8782 375.081 106.998C374.22 104.698 364.857 80.3218 353.545 70.1535C353.545 70.1535 359.836 83.5897 362.919 102.171C358.963 89.6877 353.591 78.2633 346.336 71.5445C346.642 71.953 351.754 78.7318 357.07 95.0582C344.658 75.8417 332.111 85.3131 330.977 89.8533C330.977 89.8533 337.778 85.3144 345.712 91.3657C351.914 96.0968 355.007 103.471 358.146 112.882V112.897C353.011 111.187 346.539 107.086 342.311 97.4184C342.311 97.4184 341.654 106.24 347.4 121.204C343.118 115.616 337.334 108.964 330.347 103.013C329.781 98.7507 328.797 94.3267 327.22 89.8533C327.22 89.8533 327.369 94.3013 327.119 100.382C325.108 98.8201 323.011 97.3303 320.831 95.9513C321.234 96.3437 323.806 98.8614 326.994 102.93C326.758 107.067 326.327 111.712 325.559 116.146C322.816 112.685 320.579 108.484 319.641 103.472C319.641 103.472 319.645 111.465 324.169 122.412C323.925 123.282 323.668 124.133 323.385 124.942C320.33 121.724 315.691 115.451 312.84 104.986C312.84 104.986 312.303 107.89 312.411 112.435C310.742 106.982 308.349 100.831 304.906 94.3947C304.906 94.3947 308.306 114.065 306.039 126.17C306.039 126.17 296.971 111.039 295.838 76.2368C295.838 76.2368 293.177 86.026 293.465 102.861C291.302 95.2838 287.828 85.4733 282.236 73.2105C282.236 73.2105 289.037 101.96 285.636 120.118C285.636 120.118 286.769 98.9335 272.034 70.1842C272.034 70.1842 277.028 89.2539 276.254 106.959C274.549 83.252 266.367 68.6717 266.367 68.6717C268.634 86.8296 260.7 101.961 260.7 101.961C258.433 94.3961 257.3 79.2645 257.3 79.2645C255.033 89.8559 252.766 100.449 252.766 100.449C253.899 91.3698 250.499 73.2119 250.499 73.2119C249.669 89.8292 245.196 108.057 242.859 116.635C238.92 97.0739 245.966 70.1855 245.966 70.1855C231.231 98.9349 232.364 120.119 232.364 120.119C228.964 101.961 235.764 73.2119 235.764 73.2119C230.172 85.4746 226.698 95.2851 224.535 102.862C224.823 86.0273 222.162 76.2382 222.162 76.2382C221.029 111.04 211.961 126.172 211.961 126.172C209.694 114.066 213.094 94.3961 213.094 94.3961C209.651 100.832 207.258 106.983 205.589 112.437C205.697 107.891 205.16 104.988 205.16 104.988C202.31 115.452 197.67 121.724 194.615 124.944C194.332 124.135 194.075 123.284 193.831 122.414C198.355 111.466 198.359 103.474 198.359 103.474C197.421 108.485 195.184 112.686 192.441 116.148C191.673 111.713 191.241 107.069 191.006 102.932C194.194 98.8628 196.767 96.3451 197.169 95.9526C194.989 97.3316 192.892 98.8227 190.881 100.383C190.631 94.3026 190.78 89.8546 190.78 89.8546C189.203 94.328 188.219 98.752 187.653 103.014C180.667 108.966 174.882 115.618 170.6 121.206C176.347 106.241 175.689 97.4197 175.689 97.4197C171.461 107.089 164.989 111.19 159.854 112.898V112.884C162.994 103.472 166.087 96.0981 172.288 91.3671C180.222 85.3145 187.023 89.8546 187.023 89.8546C185.89 85.3158 173.342 75.843 160.93 95.0595C166.246 78.7332 171.358 71.9544 171.664 71.5459C164.41 78.2646 159.037 89.6877 155.081 102.172C158.164 83.591 164.455 70.1548 164.455 70.1548C153.143 80.3231 143.78 104.699 142.919 106.999C150.196 82.8795 149.958 63.8446 149.958 63.8446C146.66 78.0684 141.48 92.5178 137.807 101.93C141.978 68.6717 150.207 55.054 150.207 55.054C142.635 64.2237 133.568 93.5778 130.598 108.8C119.955 93.1693 131.924 61.1974 132.446 59.805C118.776 79.2031 111.703 107.802 109.028 120.8C104.959 98.8601 118.901 71.2455 119.275 70.4886C99.178 86.588 95.155 122.374 95.155 122.374C87.221 99.3741 98.907 69.3993 99.179 68.7024C91.131 81.2309 83.095 115.201 83.095 115.201C85.781 75.8444 79.083 49.0013 79.083 49.0013C76.397 93.7299 65.674 106.258 65.674 106.258C58.975 91.9438 61.65 52.5723 61.65 52.5723C54.951 70.4726 50.927 125.943 50.927 125.943C43.015 83.6671 22.114 65.6601 21.457 65.1154C29.357 89.7798 37.28 123.099 37.518 124.128C24.222 97.5572 0.442 93.8047 0 93.7446C0.385 93.9863 21.729 107.832 27.85 144.163C15.563 135.779 2.267 136.763 2.267 136.763C2.267 136.763 17.002 138.276 29.471 164H488.53C500.998 138.277 515.733 136.763 515.733 136.763C515.733 136.763 502.437 135.779 490.15 144.161ZM178.273 127.487C180.19 120.103 183.68 113.51 187.147 108.278C186.88 112.934 187.08 117.31 187.521 121.238C184.184 124.127 180.764 126.192 178.273 127.487ZM330.478 121.238C330.919 117.31 331.119 112.934 330.852 108.278C334.319 113.51 337.809 120.103 339.726 127.487C337.235 126.192 333.815 124.127 330.478 121.238Z" fill="url(#paint0_linear_5920_1223)"/>
<defs>
<linearGradient id="paint0_linear_5920_1223" x1="258.826" y1="49" x2="259.174" y2="164" gradientUnits="userSpaceOnUse">
<stop offset="0.557692" stop-opacity="0"/>
<stop offset="1" stop-opacity="0.25"/>
</linearGradient>
</defs>
</svg>
