<svg width="567" height="91" viewBox="0 0 567 91" fill="none" xmlns="http://www.w3.org/2000/svg">
<path d="M23.813 25.8982C12.7851 28.569 2.83361 0.851812 0 0H566.301V0.0100685C560.66 10.9609 555.66 11.4573 540.3 18.9858C534.955 21.6052 530.405 20.6753 523.264 23.5173C492.058 36.886 459.014 57.1279 427.195 45.9353C423.352 44.5834 424.696 42.1501 426.153 39.5297L426.19 39.4619C427.636 36.8622 429.139 34.1579 429.832 31.1484C430.531 28.1128 430.851 23.9135 428.156 23.2412C421.647 21.6173 413.747 21.0917 407.11 23.3572C388.117 29.8405 322.626 71.4804 316.652 46.5185C314.594 37.9189 313.464 26.6533 308.36 27.4495C293.976 29.6936 278.987 38.3864 264.427 42.088C261.071 42.9413 257.509 42.7592 256.94 40.7121C255.74 36.3992 255.591 26.2171 246.166 20.6303C240.894 17.5057 229.367 15.7533 215.938 16.499C202.105 17.2672 187.937 15.9436 175.448 24.0467C155.06 37.2747 115.334 74.3462 119.343 59.4301C120.25 56.0541 123.383 50.9622 123.13 45.6255C123.002 42.9221 122.15 40.214 119.042 39.304C115.934 38.394 110.694 39.0478 106.585 39.8338C90.8052 42.8524 69.6105 58.9915 54.9821 57.3032C52.1174 56.9726 48.5821 56.1535 48.9334 54.3674C49.7641 50.1435 68.1662 32.4425 52.4662 25.3799C46.8128 22.8368 37.1419 22.6701 23.813 25.8982Z" fill="url(#paint0_linear_5921_1232)"/>
<defs>
<linearGradient id="paint0_linear_5921_1232" x1="283.248" y1="-6.64235e-08" x2="282.59" y2="62.9038" gradientUnits="userSpaceOnUse">
<stop stop-color="#014517"/>
<stop offset="1" stop-color="#014517" stop-opacity="0"/>
</linearGradient>
</defs>
</svg>
