<svg width="385" height="91" viewBox="0 0 385 91" fill="none" xmlns="http://www.w3.org/2000/svg">
<path d="M0 0.0488803C0.182557 -0.0429554 0.403605 -0.00308511 0.660248 0.149123H384.855C383.355 4.72061 374.937 42.3798 353.263 52.4449C331.588 62.51 341.934 48.9154 349.816 40.8599C349.786 42.3358 351.873 40.734 353.263 38.566C354.652 36.3979 355.324 33.7441 354.9 30.9591C354.475 28.1742 353.319 24.6585 350.7 23.8518C345.37 22.2103 333.967 20.0158 319.957 27.7082C304.548 36.1694 294.271 43.772 284.303 52.4449C274.07 61.3489 258.284 67.2033 244.625 74.711C233.509 80.8212 220.208 96.1676 206.648 88.7647C204.166 87.4098 203.761 84.4807 205.675 82.1098C209.953 76.8098 215.894 71.9431 224.271 69.3603C244.926 62.9927 258.12 62.7182 267.306 56.1376C272.459 52.4459 278.831 47.2706 279.933 39.8636C280.921 33.2275 280.926 26.8268 278.028 22.1514C276.576 19.8078 274.451 17.8904 272.167 17.5034C269.883 17.1163 267.104 17.8868 265.597 20.1079C259.137 29.6343 232.795 51.6449 237.987 42.6323C239.472 40.0539 244.027 36.1981 244.659 30.9116C245.301 25.5502 244.863 19.2172 240.666 16.5112C238.663 15.2198 235.913 14.5784 233.174 15.4841C220.364 19.72 207.412 30.7274 195.502 40.7282C186.281 48.4714 176.693 57.7529 164.601 65.0776C159.532 68.1482 149.751 70.9648 139.571 67.5817C135.598 66.2615 133.668 63.7419 134.552 61.5853C136.415 57.0448 140.415 53.1467 145.231 50.2467C155.122 44.2898 167.003 42.3796 177.437 37.2884C179.889 36.0923 181.759 34.0901 182.694 31.5172C183.629 28.9444 183.629 25.8935 183.282 23.0079L183.26 22.8223C182.918 19.9581 182.472 16.2253 179.61 16.2546C164.973 16.4043 152.054 29.077 138.28 31.1738C131.893 32.1461 124.365 33.2769 120.921 29.4548C117.538 25.699 113.188 11.0646 103.425 14.7457C93.6446 18.4337 83.9402 31.3432 71.9878 30.3962C59.655 29.4191 52.3992 17.7433 41.2784 17.2127C34.5337 16.8909 28.158 17.7366 23.3472 20.1009C14.0492 24.6703 4.12015 2.2011 0.660248 0.149123H0V0.0488803Z" fill="url(#paint0_linear_5921_1230)"/>
<defs>
<linearGradient id="paint0_linear_5921_1230" x1="192.494" y1="-9.58102e-08" x2="190.482" y2="90.6987" gradientUnits="userSpaceOnUse">
<stop stop-color="#014517"/>
<stop offset="1" stop-color="#014517" stop-opacity="0"/>
</linearGradient>
</defs>
</svg>
