<svg width="688" height="441" viewBox="0 0 688 441" fill="none" xmlns="http://www.w3.org/2000/svg">
<path fill-rule="evenodd" clip-rule="evenodd" d="M196.994 0C194.176 3.05283 191.373 6.12342 188.596 9.21973C190.784 11.7247 191.021 15.4959 188.967 18.2842L160.197 57.3291C157.95 60.379 153.767 61.1574 150.593 59.2207C129.438 95.2543 122.533 137.863 123.651 179.452C125.07 173.435 126.745 167.472 128.739 161.58C134.627 142.316 144.198 124.963 155.951 109.226C155.681 109.045 155.421 108.84 155.176 108.61C152.747 106.331 152.625 102.514 154.904 100.085L182.513 70.6592C184.792 68.2298 188.609 68.1076 191.038 70.3867C191.188 70.5275 191.33 70.6743 191.462 70.8262C194.966 67.6481 198.519 64.5482 202.102 61.5244C198.626 64.7111 195.168 67.9256 191.75 71.1865C193.464 73.4849 193.34 76.7491 191.31 78.9131L163.702 108.339C161.945 110.212 159.273 110.711 157.028 109.798C139.396 134.143 129.283 163.209 124.31 193.231C124.33 193.529 124.349 193.827 124.37 194.125C127.3 220.608 127.913 247.268 126.416 273.816C128.379 271.26 130.436 268.77 132.569 266.346C132.463 264.904 132.321 263.677 132.071 263.137C132.006 254.444 158.815 220.913 166.514 219.562C168.2 227.529 151.081 265.756 142.301 269.67C139.34 270.818 136.363 271.983 133.669 273.689L133.483 273.782L133.332 273.834C133.268 273.742 133.211 273.593 133.16 273.398C130.504 276.983 127.995 280.671 125.702 284.472C124.523 299.665 122.66 314.81 120.15 329.85C120.296 330.078 120.443 330.307 120.588 330.536C120.38 330.704 120.166 330.867 119.949 331.028C119.68 332.62 119.405 334.21 119.121 335.799C120.243 345.681 121.023 355.616 121.472 365.583C121.66 363.344 121.745 361.433 121.804 359.842C121.865 358.211 121.923 356.917 122.023 356.029C122.122 355.142 122.279 354.654 122.554 354.592C122.829 354.531 123.215 354.904 123.648 355.717C124.08 356.53 124.57 357.797 125.023 359.467C125.476 361.136 125.874 363.213 126.148 365.686C126.421 368.158 126.542 371.004 126.46 374.154C126.398 376.706 126.214 379.464 125.885 382.389C126.049 381.828 126.211 381.272 126.369 380.721C126.395 380.059 126.422 379.408 126.451 378.771C126.726 372.891 127.161 368.13 127.696 364.838C128.232 361.547 128.88 359.711 129.534 359.71C129.951 359.71 130.35 360.454 130.74 361.836C130.741 361.829 130.743 361.823 130.744 361.816C131.223 358.822 131.535 356.101 131.739 353.729C131.943 351.356 132.03 349.338 132.092 347.663C132.154 345.989 132.214 344.659 132.317 343.748C132.419 342.837 132.58 342.335 132.862 342.271C133.145 342.208 133.541 342.592 133.986 343.427C134.43 344.262 134.932 345.564 135.398 347.278C135.863 348.993 136.272 351.125 136.553 353.664C136.834 356.203 136.958 359.126 136.874 362.361C136.794 365.631 136.524 369.23 136.007 373.08C135.49 376.926 134.742 381.044 133.795 385.326C134.031 388.15 134.255 391.158 134.46 394.326C134.618 393.805 134.777 393.288 134.929 392.774C135.968 389.267 136.876 385.955 137.612 382.871C138.349 379.788 138.906 376.935 139.327 374.323C139.74 371.742 140.009 369.398 140.185 367.353C140.361 365.307 140.436 363.567 140.489 362.124C140.543 360.681 140.594 359.535 140.683 358.749C140.771 357.963 140.91 357.531 141.153 357.477C141.397 357.422 141.738 357.753 142.121 358.473C142.504 359.193 142.937 360.314 143.338 361.792C143.739 363.27 144.092 365.108 144.334 367.297C144.577 369.485 144.683 372.005 144.611 374.794C144.541 377.612 144.31 380.715 143.864 384.033C143.418 387.351 142.773 390.904 141.955 394.6C140.562 400.917 138.696 407.75 136.506 414.932C136.135 416.149 135.751 417.378 135.361 418.618C135.366 420.557 135.353 422.523 135.316 424.511C137.751 423.371 140.803 422.201 144.61 421.116C144.791 413.585 144.926 406.343 145.074 399.5C145.313 388.503 145.616 378.536 146.05 370.175C146.484 361.815 147.045 355.056 147.737 350.375C148.43 345.695 149.234 343.101 150.062 343.1C150.89 343.1 151.682 345.678 152.425 350.337C153.168 354.996 153.872 361.726 154.525 370.062C155.046 376.732 155.527 384.437 155.888 392.92C155.919 391.392 155.95 389.881 155.983 388.389C156.228 377.095 156.539 366.858 156.985 358.273C157.43 349.688 158.005 342.746 158.717 337.939C159.428 333.133 160.254 330.468 161.105 330.468C161.955 330.468 162.768 333.116 163.531 337.9C163.965 340.619 164.383 344.025 164.788 348.029C165.022 347.55 165.259 347.303 165.499 347.303C166.232 347.303 166.932 349.585 167.59 353.709C168.248 357.833 168.872 363.79 169.449 371.17C170.027 378.55 170.552 387.363 170.877 397.162C171.08 403.276 171.202 409.78 171.174 416.568C172.36 412.418 173.443 408.357 174.383 404.41C175.954 397.811 177.117 391.535 177.814 385.627C178.287 381.638 178.568 377.817 178.644 374.258C178.719 370.698 178.59 367.393 178.339 364.354C177.795 357.743 176.616 352.449 175.767 348.781C175.342 346.947 175.015 345.507 174.854 344.493C174.692 343.48 174.707 342.902 174.964 342.778C174.996 342.763 175.035 342.751 175.074 342.75C175.349 342.746 175.794 343.09 176.375 343.801C177.04 344.614 177.885 345.906 178.81 347.646C179.735 349.385 180.734 351.575 181.687 354.229C182.639 356.884 183.536 360.01 184.232 363.524C184.868 366.747 185.323 370.296 185.559 374.119C185.795 377.942 185.8 382.041 185.531 386.318C185.391 388.534 185.185 390.798 184.916 393.104C185.545 390.06 186.218 387.221 186.913 384.619C188.519 378.61 190.24 373.865 191.671 370.677C193.101 367.489 194.243 365.85 194.824 366.029C195.406 366.21 195.361 368.183 194.963 371.59C194.565 374.997 193.81 379.846 193.027 385.836C192.55 389.48 192.07 393.551 191.624 397.976C192.042 396.418 192.476 394.939 192.924 393.548C194.535 388.539 196.281 384.654 197.733 382.082C198.483 380.752 199.148 379.772 199.689 379.165C200.45 374.334 201.367 369.733 202.394 365.402C204.653 355.873 207.41 347.66 210.139 341.023C212.867 334.387 215.541 329.308 217.626 325.975C219.711 322.642 221.222 321.045 221.83 321.328C222.438 321.612 222.08 323.751 221.13 327.487C220.18 331.223 218.632 336.564 216.925 343.272C215.327 349.551 213.615 357.031 212.195 365.526C214.077 369.654 216.401 375.477 218.775 382.769C220.194 387.129 221.629 392.008 222.967 397.338C222.112 392.512 221.21 388.053 220.374 384.028C218.918 377.021 217.671 371.345 216.944 367.375C216.218 363.404 216.023 361.119 216.585 360.93C217.148 360.741 218.399 362.668 220.125 366.353C221.852 370.038 224.061 375.478 226.322 382.424C226.594 383.258 226.865 384.113 227.137 384.989C226.342 380.729 225.535 376.742 224.772 373.067C223.083 364.937 221.635 358.353 220.792 353.747C219.949 349.142 219.722 346.49 220.374 346.27C221.027 346.05 222.479 348.285 224.483 352.561C226.486 356.837 229.047 363.148 231.671 371.206C234.295 379.264 236.974 389.047 239.02 400.153C240.258 406.877 241.246 414.1 241.808 421.688C245.449 422.017 247.874 422.557 248.405 422.947C248.403 422.947 245.848 422.637 241.873 422.566C241.983 424.144 242.07 425.737 242.141 427.344C244.388 426.94 246.758 426.539 249.242 426.151C249.695 425.526 250.351 424.886 251.258 424.238C250.449 419.27 249.541 414.439 248.553 409.778C244.331 389.879 238.891 373.008 234.885 360.725C232.855 354.5 231.167 349.39 230.166 345.672C229.663 343.801 229.313 342.233 229.193 341.066C229.131 340.476 229.136 339.963 229.193 339.568C229.219 339.345 229.271 339.023 229.38 338.856C229.489 338.69 229.642 338.647 229.755 338.67C229.868 338.693 229.937 338.786 230.055 338.856C230.173 338.927 230.352 338.96 230.504 339.193C230.738 339.447 231.025 339.778 231.365 340.241C232.033 341.139 232.879 342.401 233.911 344.061C234.508 345.017 235.154 346.096 235.848 347.291C235.703 346.614 235.6 346.014 235.547 345.501C235.493 344.978 235.497 344.524 235.547 344.175C235.571 343.977 235.616 343.693 235.713 343.545C235.81 343.397 235.945 343.36 236.045 343.38C236.145 343.4 236.206 343.482 236.311 343.545C236.415 343.607 236.574 343.636 236.708 343.843C236.915 344.068 237.169 344.361 237.471 344.771C238.061 345.566 238.811 346.683 239.725 348.152C241.526 351.042 243.866 355.164 246.486 360.483C249.064 365.712 251.879 372.063 254.641 379.377C257.403 386.692 260.101 394.962 262.398 404.039C264.116 410.826 265.609 418.07 266.731 425.634C265.567 416.316 264.033 407.361 262.249 398.945C257.914 378.509 252.328 361.183 248.213 348.569C246.129 342.177 244.395 336.929 243.367 333.11C242.851 331.189 242.491 329.579 242.367 328.381C242.305 327.775 242.31 327.248 242.367 326.843C242.395 326.614 242.448 326.284 242.56 326.112C242.672 325.941 242.828 325.897 242.944 325.92C243.061 325.943 243.131 326.041 243.252 326.113C243.373 326.186 243.558 326.22 243.714 326.46C243.954 326.721 244.248 327.061 244.598 327.536C245.283 328.458 246.153 329.754 247.213 331.459C249.303 334.811 252.017 339.593 255.058 345.764C258.048 351.83 261.314 359.197 264.518 367.683C265.79 371.053 267.05 374.599 268.275 378.309C268.299 376.633 268.362 374.994 268.461 373.397C268.728 369.078 269.242 365.069 269.961 361.429C270.747 357.459 271.76 353.928 272.836 350.929C273.912 347.93 275.041 345.456 276.086 343.491C277.131 341.526 278.085 340.066 278.836 339.147C279.493 338.344 279.995 337.955 280.305 337.96V337.958C280.349 337.959 280.393 337.972 280.43 337.989C280.721 338.129 280.737 338.782 280.555 339.927C280.415 340.808 280.163 341.974 279.836 343.409C280.252 342.963 280.577 342.747 280.795 342.75C280.834 342.751 280.873 342.763 280.905 342.778C281.163 342.902 281.177 343.48 281.016 344.493C280.854 345.507 280.527 346.947 280.103 348.781C279.253 352.449 278.074 357.743 277.53 364.354C277.279 367.393 277.15 370.698 277.226 374.258C277.301 377.817 277.582 381.638 278.056 385.627C278.63 390.491 279.518 395.605 280.692 400.942C281.837 397.033 283.044 393.301 284.281 389.76C283.536 384.94 283.019 380.25 282.734 375.735C282.422 370.773 282.427 366.017 282.701 361.582C282.975 357.147 283.503 353.03 284.242 349.291C285.049 345.214 286.09 341.588 287.194 338.508C288.299 335.428 289.459 332.888 290.532 330.87C291.606 328.852 292.586 327.352 293.357 326.409C294.031 325.584 294.546 325.185 294.864 325.189C294.91 325.19 294.956 325.203 294.993 325.221C295.292 325.364 295.309 326.035 295.121 327.211C294.934 328.387 294.555 330.058 294.063 332.186C293.077 336.44 291.709 342.583 291.078 350.253C290.787 353.778 290.637 357.613 290.725 361.742C290.793 364.971 291.009 368.386 291.361 371.935C292.396 369.627 293.412 367.474 294.393 365.483C296.932 360.33 299.208 356.3 300.986 353.426C300.246 352.701 299.908 352.186 300.022 351.906C300.152 351.607 300.814 351.601 301.969 351.869C302.525 351.012 303.004 350.316 303.408 349.771C303.71 349.361 303.964 349.068 304.171 348.843C304.305 348.636 304.464 348.607 304.569 348.545C304.673 348.482 304.734 348.399 304.834 348.379L304.835 348.38C304.935 348.36 305.07 348.398 305.166 348.545C305.263 348.693 305.309 348.977 305.332 349.175C305.382 349.524 305.386 349.978 305.332 350.501C305.267 351.131 305.125 351.892 304.924 352.767C306.932 353.469 309.524 354.502 312.647 355.844C314.973 357.203 317.515 358.949 320.14 361.12C320.484 358.446 320.831 356.143 321.178 354.255C321.332 353.417 321.487 352.66 321.643 351.989C320.125 350.479 318.649 349.139 317.26 347.952C310.527 343.46 306.669 340.38 307.023 339.512C307.396 338.655 312.004 340.124 319.987 343.555C323.652 345.696 327.841 348.769 332.055 352.926C332.722 353.584 333.388 354.272 334.054 354.986C335.8 355.325 339.148 356.558 343.861 358.583C345.482 359.531 347.222 360.69 349.024 362.078C349.587 361.235 350.014 360.839 350.284 360.93C350.611 361.04 350.681 361.854 350.541 363.294C351.767 364.31 353.014 365.429 354.262 366.66C357.894 370.243 361.528 374.786 364.691 380.215C368.019 386.001 370.801 392.71 372.769 400.077C373.106 401.341 373.418 402.625 373.708 403.925C373.69 402.721 373.666 401.524 373.633 400.335C373.283 387.782 372.046 376.09 370.383 365.67C368.72 355.25 366.645 346.124 364.717 338.547C362.789 330.969 361.04 324.936 359.967 320.715C358.894 316.495 358.488 314.078 359.175 313.757C359.862 313.436 361.57 315.242 363.925 319.007C366.28 322.772 369.301 328.509 372.383 336.006C373.718 339.252 375.058 342.833 376.357 346.724C376.163 345.486 375.966 344.261 375.761 343.052C373.696 330.866 371.12 320.193 368.727 311.331C366.333 302.469 364.164 295.413 362.831 290.477C361.499 285.541 360.995 282.714 361.848 282.339C362.701 281.964 364.821 284.075 367.744 288.479C370.668 292.882 374.417 299.591 378.243 308.358C382.07 317.126 385.937 327.976 389.105 340.566C392.273 353.156 394.706 367.48 395.673 382.958C396.488 396.061 396.312 409.966 394.975 424.226C395.823 425.371 396.852 426.377 397.942 427.25C398.828 417.111 399.109 407.267 398.847 397.968C398.537 386.856 397.442 376.506 395.97 367.282C394.498 358.059 392.661 349.98 390.954 343.272C389.247 336.564 387.699 331.223 386.749 327.487C385.799 323.751 385.441 321.612 386.049 321.328C386.657 321.044 388.169 322.642 390.253 325.975C392.338 329.308 395.012 334.387 397.74 341.023C400.469 347.66 403.226 355.873 405.486 365.402C407.745 374.932 409.48 385.774 410.169 397.489C410.409 401.59 410.527 405.795 410.518 410.08C412.376 404.578 414.07 399.365 415.523 394.468C416.696 390.505 417.722 386.763 418.554 383.279C419.385 379.796 420.015 376.574 420.491 373.623C420.958 370.708 421.262 368.059 421.46 365.748C421.659 363.438 421.743 361.472 421.804 359.842C421.865 358.211 421.923 356.917 422.023 356.029C422.122 355.142 422.279 354.654 422.554 354.592C422.829 354.531 423.215 354.904 423.648 355.717C424.08 356.53 424.57 357.797 425.023 359.467C425.476 361.136 425.874 363.213 426.148 365.686C426.421 368.158 426.542 371.004 426.46 374.154C426.398 376.706 426.214 379.464 425.885 382.389C426.988 378.627 427.958 375.065 428.754 371.732C429.608 368.155 430.255 364.847 430.744 361.816C431.223 358.822 431.535 356.101 431.739 353.729C431.943 351.356 432.03 349.338 432.092 347.663C432.154 345.989 432.214 344.659 432.317 343.748C432.419 342.837 432.58 342.335 432.862 342.271C433.145 342.208 433.541 342.592 433.986 343.427C434.43 344.262 434.932 345.564 435.398 347.278C435.863 348.993 436.272 351.125 436.553 353.664C436.834 356.203 436.958 359.126 436.874 362.361C436.794 365.631 436.524 369.23 436.007 373.08C435.49 376.93 434.741 381.053 433.793 385.34C432.176 392.669 430.012 400.595 427.471 408.928C425.599 415.067 423.506 421.46 421.402 428H423.16C424.986 422.549 426.819 417.312 428.538 412.333C430.96 405.32 433.148 398.777 434.929 392.774C435.968 389.267 436.876 385.955 437.612 382.871C438.349 379.788 438.906 376.935 439.327 374.323C439.74 371.742 440.009 369.398 440.185 367.353C440.361 365.307 440.436 363.567 440.489 362.124C440.543 360.681 440.594 359.535 440.683 358.749C440.771 357.963 440.91 357.531 441.153 357.477C441.397 357.422 441.738 357.753 442.121 358.473C442.504 359.193 442.937 360.314 443.338 361.792C443.739 363.27 444.092 365.108 444.334 367.297C444.405 367.935 444.462 368.602 444.509 369.295C446.282 365.137 448.029 361.358 449.689 357.991C452.649 351.982 455.293 347.325 457.327 344.061C458.359 342.4 459.207 341.139 459.874 340.241C460.215 339.778 460.502 339.447 460.736 339.193C460.887 338.96 461.067 338.927 461.185 338.856C461.303 338.786 461.371 338.692 461.485 338.669C461.598 338.646 461.75 338.69 461.86 338.856C461.969 339.023 462.019 339.345 462.046 339.568C462.102 339.963 462.107 340.476 462.046 341.066C461.925 342.233 461.575 343.801 461.072 345.672C460.072 349.39 458.384 354.5 456.355 360.725C452.348 373.008 446.909 389.879 442.687 409.778C441.803 413.947 440.983 418.251 440.24 422.668C441.654 422.207 444.983 421.669 449.446 421.473C450.011 413.964 450.992 406.814 452.219 400.153C454.265 389.047 456.945 379.264 459.569 371.206C462.192 363.148 464.754 356.837 466.757 352.561C468.76 348.285 470.212 346.05 470.864 346.27C471.517 346.489 471.29 349.141 470.447 353.747C469.604 358.353 468.157 364.937 466.468 373.067C465.71 376.717 464.908 380.676 464.118 384.904C464.381 384.058 464.645 383.231 464.907 382.424C467.169 375.478 469.377 370.037 471.104 366.353C472.83 362.667 474.082 360.74 474.645 360.93C475.207 361.119 475.012 363.405 474.285 367.375C473.559 371.345 472.31 377.021 470.855 384.028C470.012 388.087 469.101 392.586 468.239 397.459C469.586 392.082 471.035 387.162 472.465 382.769C474.839 375.477 477.16 369.653 479.042 365.525C477.622 357.03 475.911 349.551 474.314 343.272C472.607 336.564 471.06 331.223 470.11 327.487C469.16 323.752 468.801 321.613 469.408 321.328C470.017 321.044 471.529 322.642 473.613 325.975C475.698 329.308 478.371 334.387 481.1 341.023C483.828 347.66 486.586 355.872 488.846 365.402C489.872 369.732 490.788 374.334 491.549 379.164C492.09 379.771 492.756 380.751 493.507 382.082C494.959 384.654 496.704 388.539 498.316 393.548C498.758 394.922 499.186 396.382 499.599 397.919C499.154 393.516 498.677 389.464 498.202 385.836C497.419 379.846 496.665 374.997 496.267 371.59C495.869 368.183 495.823 366.21 496.404 366.029C496.986 365.849 498.127 367.489 499.558 370.677C500.988 373.865 502.711 378.61 504.317 384.619C505.012 387.221 505.683 390.06 506.313 393.104C506.044 390.798 505.838 388.534 505.697 386.318C505.429 382.041 505.434 377.942 505.67 374.119C505.906 370.296 506.361 366.747 506.998 363.524C507.694 360.01 508.591 356.884 509.543 354.229C510.495 351.575 511.495 349.385 512.42 347.646C513.345 345.906 514.19 344.614 514.855 343.801C515.436 343.09 515.88 342.746 516.154 342.75C516.194 342.751 516.233 342.763 516.265 342.778C516.522 342.902 516.538 343.48 516.376 344.493C516.215 345.507 515.888 346.947 515.463 348.781C514.613 352.449 513.434 357.743 512.89 364.354C512.638 367.393 512.511 370.698 512.586 374.258C512.662 377.817 512.943 381.638 513.416 385.627C514.113 391.535 515.275 397.811 516.846 404.41C517.788 408.367 518.875 412.441 520.065 416.603C520.036 409.802 520.159 403.287 520.362 397.162C520.688 387.363 521.213 378.55 521.79 371.17C522.367 363.79 522.991 357.833 523.649 353.709C524.306 349.585 525.007 347.303 525.74 347.303C525.978 347.303 526.212 347.544 526.443 348.012C526.847 344.015 527.265 340.615 527.698 337.9C528.461 333.116 529.274 330.468 530.124 330.468C530.974 330.468 531.8 333.132 532.512 337.939C533.223 342.746 533.8 349.688 534.245 358.273C534.691 366.858 535.001 377.095 535.246 388.389C535.28 389.933 535.311 391.498 535.344 393.081C535.705 384.534 536.19 376.774 536.715 370.062C537.162 364.343 537.637 359.38 538.129 355.323C537.432 353.128 536.847 351.203 536.409 349.578C535.964 347.922 535.654 346.534 535.547 345.501C535.493 344.978 535.497 344.524 535.547 344.175C535.571 343.977 535.616 343.693 535.713 343.545C535.81 343.397 535.945 343.36 536.045 343.38C536.145 343.4 536.206 343.482 536.311 343.545C536.415 343.607 536.574 343.636 536.708 343.843C536.915 344.068 537.169 344.361 537.471 344.771C537.973 345.447 538.588 346.356 539.323 347.517C539.916 344.65 540.535 343.1 541.177 343.1C542.005 343.1 542.809 345.694 543.502 350.375C543.741 351.993 543.964 353.859 544.172 355.953C544.912 357.352 545.687 358.861 546.486 360.483C549.064 365.712 551.879 372.063 554.641 379.377C555.544 381.77 556.44 384.267 557.318 386.859C557.494 384.667 557.675 382.578 557.862 380.604C554.538 368.058 551.031 357.209 548.213 348.569C546.129 342.177 544.395 336.929 543.367 333.11C542.851 331.189 542.491 329.579 542.367 328.381C542.305 327.775 542.31 327.248 542.367 326.843C542.395 326.614 542.448 326.284 542.56 326.112C542.672 325.941 542.828 325.897 542.944 325.92C543.061 325.943 543.131 326.041 543.252 326.113C543.373 326.186 543.558 326.22 543.714 326.46C543.954 326.721 544.248 327.061 544.598 327.536C545.283 328.458 546.153 329.754 547.213 331.459C549.302 334.811 552.017 339.593 555.058 345.764C557.084 349.875 559.237 354.584 561.411 359.833C561.508 359.751 561.606 359.71 561.704 359.71C562.359 359.71 563.007 361.546 563.543 364.838C563.57 365 563.591 365.167 563.617 365.337C563.917 366.109 564.219 366.891 564.518 367.683C565.79 371.053 567.05 374.599 568.275 378.309C568.299 376.633 568.362 374.994 568.461 373.397C568.728 369.078 569.242 365.069 569.961 361.429C570.747 357.459 571.76 353.928 572.836 350.929C573.912 347.93 575.041 345.456 576.086 343.491C577.131 341.526 578.085 340.066 578.836 339.147C579.493 338.344 579.995 337.955 580.305 337.96V337.958C580.349 337.959 580.393 337.972 580.43 337.989C580.721 338.129 580.737 338.782 580.555 339.927C580.414 340.808 580.163 341.974 579.836 343.409C580.252 342.963 580.577 342.747 580.795 342.75C580.834 342.751 580.873 342.763 580.905 342.778C581.163 342.902 581.177 343.48 581.016 344.493C580.854 345.507 580.527 346.947 580.103 348.781C579.253 352.449 578.074 357.743 577.53 364.354C577.279 367.393 577.15 370.698 577.226 374.258C577.301 377.817 577.582 381.638 578.056 385.627C578.63 390.491 579.518 395.605 580.692 400.942C581.837 397.033 583.044 393.301 584.281 389.76C583.536 384.94 583.019 380.25 582.734 375.735C582.422 370.773 582.427 366.017 582.701 361.582C582.975 357.147 583.503 353.03 584.242 349.291C585.049 345.214 586.09 341.588 587.194 338.508C588.299 335.428 589.459 332.888 590.532 330.87C591.606 328.852 592.586 327.352 593.357 326.409C594.031 325.584 594.546 325.185 594.864 325.189C594.91 325.19 594.956 325.203 594.993 325.221C595.292 325.364 595.309 326.035 595.121 327.211C594.934 328.387 594.555 330.058 594.063 332.186C593.077 336.44 591.709 342.583 591.078 350.253C590.787 353.778 590.637 357.613 590.725 361.742C590.793 364.971 591.009 368.386 591.361 371.935C592.396 369.627 593.412 367.474 594.393 365.483C597.014 360.164 599.353 356.042 601.154 353.152C602.068 351.683 602.818 350.566 603.408 349.771C603.71 349.361 603.964 349.068 604.171 348.843C604.305 348.636 604.464 348.607 604.568 348.545C604.673 348.482 604.734 348.399 604.834 348.379L604.835 348.38C604.935 348.36 605.07 348.398 605.166 348.545C605.263 348.693 605.309 348.977 605.332 349.175C605.382 349.524 605.386 349.978 605.332 350.501C605.225 351.534 604.915 352.922 604.47 354.578C603.584 357.87 602.09 362.393 600.293 367.903C598.399 373.711 596.144 380.677 593.884 388.592C594.415 391.252 595.01 393.964 595.667 396.724C596.837 401.635 598.198 406.701 599.693 411.882C599.802 408.518 599.953 405.263 600.127 402.14C600.56 394.379 601.115 387.425 601.698 381.595C602.282 375.764 602.878 371.069 603.477 367.809C604.076 364.548 604.69 362.71 605.345 362.71C605.688 362.71 606.028 363.214 606.352 364.168C606.894 361.801 607.449 360.5 608.034 360.5C608.774 360.5 609.506 362.575 610.111 366.294C610.717 370.013 611.207 375.392 611.518 382.035C611.828 388.678 611.934 396.559 611.986 405.277C612.012 409.487 612.022 413.892 612.048 418.443C613.868 420.385 615.419 422.565 616.672 424.588C616.672 424.577 616.672 424.566 616.672 424.556C616.664 424.208 616.644 423.873 616.638 423.524C616.481 415.171 616.672 407.161 617.009 399.698C616.632 396.147 616.237 392.846 615.843 389.836C615.059 383.846 614.305 378.997 613.906 375.59C613.508 372.183 613.463 370.21 614.045 370.029C614.627 369.85 615.768 371.49 617.198 374.677C617.409 375.147 617.625 375.652 617.848 376.189C617.798 375.795 617.751 375.416 617.708 375.051C617.258 371.202 617.207 368.974 617.864 368.77C618.17 368.675 618.611 369.027 619.16 369.792C619.822 363.239 620.499 357.952 621.178 354.255C621.873 350.473 622.585 348.34 623.345 348.34C624.104 348.34 624.855 350.472 625.477 354.29C626.098 358.109 626.603 363.633 626.922 370.455C627.213 376.69 627.328 383.987 627.387 392.032C628.974 398.356 630.428 405.78 631.552 413.989C631.832 416.033 632.089 418.127 632.325 420.264C632.811 415.78 633.458 411.471 634.212 407.376C635.085 402.636 636.093 398.176 637.161 394.038C636.639 388.849 636.079 384.076 635.521 379.809C634.611 372.859 633.736 367.233 633.275 363.28C632.827 359.452 632.763 357.184 633.373 356.855L633.435 356.829C634.109 356.62 635.434 358.522 637.094 362.22C638.663 365.718 640.534 370.832 642.308 377.273C643.934 372.745 645.47 369.071 646.743 366.353C648.47 362.668 649.722 360.741 650.284 360.93C650.847 361.119 650.652 363.404 649.925 367.375C649.198 371.345 647.951 377.021 646.495 384.028C646.102 385.922 645.694 387.911 645.283 389.989C646.101 394.128 646.849 398.573 647.491 403.268C648.175 408.264 648.731 413.55 649.159 419.038C654.895 417.649 659.168 416.975 659.505 416.924C656.036 418.909 652.565 421.126 649.459 423.212C649.562 424.794 649.654 426.391 649.736 428H650.004V428.056C667.164 424.495 687.529 423.905 688.004 423.894C687.487 423.953 659.143 427.325 651.014 436.17C667.333 434.129 684.993 434.368 684.993 434.368C684.993 434.368 666.308 434.721 650.004 440.58V441H39.0041V440.946C22.4735 434.735 3.0148 434.368 3.0148 434.368C3.0148 434.368 20.6749 434.129 36.9943 436.17C28.8644 427.324 0.515408 423.953 0.00405699 423.895C0.483571 423.906 21.6438 424.518 39.0041 428.268V428H39.089C39.0049 426.442 38.8992 424.896 38.7716 423.363C35.6096 421.234 32.0554 418.957 28.5031 416.924C28.827 416.973 32.8569 417.609 38.3341 418.915C37.7868 414.099 37.0124 409.447 35.9914 405.031C34.2173 397.358 31.7215 390.389 28.6789 384.312C25.9009 378.672 22.678 373.8 19.4289 369.781C16.1798 365.762 12.892 362.604 9.99136 360.125C3.43499 355.751 -0.32149 352.752 0.0216351 351.906C0.38571 351.072 4.87264 352.503 12.6466 355.844C16.2152 357.929 20.2935 360.921 24.3966 364.969C28.4998 369.016 32.6059 374.148 36.1779 380.28C39.9379 386.816 43.0799 394.396 45.3029 402.719C45.5594 403.679 45.802 404.65 46.0343 405.629C45.5042 401.641 44.8178 397.774 43.9611 394.068C42.1392 386.188 39.5761 379.031 36.4513 372.791C33.5986 366.998 30.2881 361.995 26.9513 357.868C23.6147 353.741 20.2387 350.498 17.2599 347.952C10.5267 343.46 6.66947 340.38 7.02261 339.512C7.39649 338.655 12.0044 340.124 19.9875 343.555C23.6522 345.696 27.8408 348.769 32.0548 352.926C32.7223 353.584 33.3884 354.272 34.0539 354.986C35.7997 355.325 39.1475 356.558 43.8605 358.583C47.0195 360.429 50.6299 363.077 54.2619 366.66C57.894 370.243 61.5284 374.786 64.6906 380.215C68.019 386.001 70.8009 392.71 72.7687 400.077C73.1063 401.341 73.4179 402.625 73.7082 403.925C73.6904 402.721 73.6664 401.524 73.633 400.335C73.2832 387.782 72.0464 376.09 70.383 365.67C68.7196 355.25 66.6454 346.124 64.7169 338.547C62.7885 330.969 61.0403 324.936 59.9669 320.715C58.8937 316.495 58.4883 314.078 59.175 313.757C59.862 313.436 61.5699 315.242 63.925 319.007C66.2801 322.772 69.3007 328.509 72.383 336.006C75.0903 342.591 77.8226 350.55 80.1769 359.684C79.8952 357.629 79.5957 355.615 79.2814 353.646C77.5732 342.947 75.4424 333.575 73.4621 325.792C71.4817 318.01 69.6875 311.814 68.5851 307.479C67.4827 303.144 67.066 300.662 67.7716 300.333C68.4772 300.004 70.231 301.858 72.6496 305.725C75.0681 309.591 78.1698 315.483 81.3351 323.182C84.5004 330.881 87.6993 340.408 90.3205 351.463C92.9416 362.519 94.9551 375.097 95.755 388.688C95.8355 390.061 95.9022 391.444 95.9591 392.836C96.4384 391.35 96.9115 389.863 97.3781 388.373C96.8584 380.867 96.0093 373.794 94.9699 367.282C93.4975 358.059 91.6613 349.98 89.9543 343.272C88.2473 336.564 86.6994 331.223 85.7492 327.487C84.799 323.751 84.4407 321.612 85.049 321.328C85.6572 321.045 87.1686 322.642 89.2531 325.975C91.3379 329.308 94.0119 334.387 96.7404 341.023C99.3813 347.447 102.047 355.347 104.264 364.489C106.846 354.693 109.153 344.822 111.172 334.893C110.936 332.353 110.677 329.818 110.396 327.285C108.543 324.453 106.599 321.674 104.585 318.942C100.778 317.594 96.8119 316.779 92.8546 315.979C82.2396 313.281 59.4853 282.535 49.3683 262.57C36.9127 265.238 24.882 266.489 20.9728 264.753C22.5198 260.912 32.8256 254.099 44.3586 248.141C44.359 248.122 44.3445 248.098 44.3449 248.08C56.0642 248.119 104.196 290.859 106.311 303.72C105.966 305.003 106.354 308.482 106.746 311.901C107.417 312.686 108.082 313.476 108.739 314.271C105.938 294.755 101.736 275.498 96.0578 256.688C96.0313 256.613 96.0042 256.538 95.9777 256.463C94.5959 254.981 93.1805 253.539 91.7404 252.104C90.0649 252.285 88.6733 251.022 85.5539 249.565C72.6607 237.406 58.1049 222.095 57.9923 206.441C57.8826 206.368 57.7862 206.301 57.674 206.227C57.7832 206.254 57.8895 206.287 57.9982 206.315C57.9978 206.123 57.9668 205.928 57.9709 205.735C58.045 205.959 58.1227 206.158 58.1964 206.374C71.7292 210.084 81.9156 224.96 89.8986 239.281C83.925 222.316 78.2041 205.193 74.5636 187.625C65.4374 185.539 64.445 172.308 61.8937 163.56C58.5638 158.67 56.0349 156.048 53.2814 154.186C55.4961 155.406 58.1727 157.41 60.9191 159.868C60.0663 156.269 59.5683 152.947 59.5685 150.426C59.8771 153.733 60.9959 157.228 63.7599 162.561C66.1194 165.137 69.1054 167.662 71.7492 170.448C71.1338 165.225 70.745 159.956 70.63 154.634C70.1292 145.695 70.665 136.868 72.008 128.123C71.9841 128.128 71.9605 128.134 71.9367 128.138C70.948 126.142 70.0335 124.106 69.174 122.052C69.1167 121.969 69.0625 121.902 68.9923 121.778C60.8652 118.624 62.7018 106.743 62.214 98.582C60.33 93.7792 58.6883 91.061 56.7072 88.9443C58.3539 90.4102 60.2413 92.6343 62.1007 95.2578C62.0732 92.0345 62.2929 89.1147 62.7814 86.9727C62.4031 89.8421 62.6763 93.0299 63.9923 98.0957C67.9259 105.009 75.5736 112.44 71.1144 121.834C71.5864 122.823 72.0682 123.809 72.5617 124.787C74.7708 112.31 78.5685 99.9937 83.2834 87.749L83.2843 87.751C83.651 87.9788 83.3808 87.653 83.7599 87.8496C82.142 92.064 80.7338 96.3041 79.5246 100.563C83.0081 97.353 86.5429 94.1919 90.1164 91.1094C86.4741 94.5201 82.8533 97.9517 79.2814 101.429C75.6887 114.378 73.9232 127.499 73.6515 140.593C74.1206 139.811 74.5977 139.034 75.0841 138.264C75.1192 138.169 75.1423 138.086 75.2033 137.957C73.1243 129.491 83.9086 124.179 90.3127 119.098C93.1654 114.799 94.449 111.895 95.0461 109.058C94.7902 111.247 94.0526 114.069 92.9709 117.097C95.595 115.225 98.1119 113.729 100.147 112.9C97.5791 114.237 95.1255 116.29 91.7316 120.274C88.327 127.463 86.6282 137.991 76.3752 139.729C75.4185 141.421 74.4846 143.13 73.6154 144.86C73.6561 155.603 74.6804 166.313 76.507 176.882C77.7446 179.345 78.4136 182.076 78.1154 185.206C78.3638 186.371 78.6221 187.533 78.8888 188.693C80.0204 190.099 81.1734 191.486 82.3625 192.831C81.7401 193.395 81.037 193.84 80.3068 194.146C80.2595 194.088 80.2124 194.03 80.1652 193.972C81.5156 199.274 83.0515 204.524 84.7443 209.707C84.6035 204.066 84.726 198.399 85.1798 192.702C87.0244 153.262 107.584 116.572 131.777 84.3057C131.762 84.3286 131.745 84.3511 131.73 84.374C131.743 84.3558 131.757 84.3376 131.771 84.3193C121.5 99.23 111.581 114.429 103.858 130.596C99.0826 140.011 95.5013 149.725 92.9513 159.608C93.2764 159.204 93.6055 158.804 93.9357 158.404C93.9799 158.32 94.0116 158.245 94.0841 158.132C93.1248 150.037 103.897 146.267 110.522 142.236C113.712 138.549 115.263 135.988 116.158 133.416C115.66 135.424 114.633 137.966 113.259 140.664C115.949 139.208 118.493 138.091 120.505 137.54C117.932 138.505 115.382 140.148 111.719 143.484C107.668 149.798 104.831 159.399 94.9787 159.905C93.8932 161.356 92.8267 162.824 91.8166 164.318C90.629 169.617 89.7269 174.958 89.088 180.323C90.1512 179.454 91.2336 178.611 92.3293 177.79C92.3901 177.719 92.4373 177.654 92.5314 177.562C93.5351 169.237 104.457 168.63 111.574 166.556C115.412 163.821 117.457 161.728 118.895 159.433C117.959 161.283 116.407 163.511 114.493 165.792C116.31 165.369 118.038 165.066 119.572 164.912C120.11 148.752 121.787 132.674 125.581 116.82C129.923 95.8403 138.427 76.4097 149.486 58.3955C146.763 55.9281 146.297 51.7505 148.524 48.7285L177.294 9.68262C179.669 6.45928 184.208 5.77135 187.432 8.14648C187.748 8.37985 188.04 8.63539 188.307 8.90723C191.169 5.8888 194.069 2.92 196.994 0ZM38.6339 360.411C40.557 362.922 42.4174 365.671 44.1535 368.651C48.0148 375.364 51.2417 383.146 53.5246 391.693C55.8074 400.24 57.1611 409.537 57.5363 419.101C57.5974 420.658 57.621 422.219 57.633 423.754C57.6379 424.268 57.6387 424.78 57.6378 425.29C59.4397 426.125 61.1604 427.028 62.7404 428H67.4865C67.4855 427.941 67.4856 427.882 67.4845 427.823C67.4604 426.579 67.4002 425.319 67.3459 424.062C67.0125 416.339 66.095 408.917 64.5246 402.124C62.9541 395.332 60.7454 389.163 58.0519 383.783C55.5928 378.79 52.7396 374.477 49.8634 370.92C46.9873 367.362 44.0767 364.566 41.5089 362.372C40.4687 361.678 39.5083 361.023 38.6339 360.411ZM125.156 422.118C123.304 423.863 122.054 425.946 123.121 428H123.16C123.827 426.01 124.494 424.049 125.156 422.118ZM144.47 426.518C144.147 427.01 143.935 427.506 143.86 428H144.429C144.443 427.505 144.456 427.011 144.47 426.518ZM218.451 425.721C216.56 426.403 214.936 427.165 213.353 428H218.629C218.574 427.236 218.514 426.477 218.451 425.721ZM472.685 427.015C472.66 427.342 472.634 427.671 472.611 428H474.658C474.012 427.659 473.36 427.331 472.685 427.015ZM439.463 427.528C439.508 427.687 439.542 427.844 439.564 428H441.407C440.767 427.809 440.121 427.622 439.476 427.443C439.471 427.472 439.467 427.5 439.463 427.528ZM288.194 411.326C287.481 414.694 286.813 418.161 286.202 421.714C286.534 422.82 286.87 423.931 287.212 425.047C287.516 426.038 287.819 427.02 288.121 428H289.072C290.408 427.048 291.709 425.91 292.768 424.571C292.675 424.275 292.581 423.979 292.489 423.681C291.052 419.021 289.712 414.391 288.518 409.818C288.409 410.319 288.302 410.821 288.194 411.326ZM248.57 427.433C247.912 427.615 247.253 427.805 246.6 428H248.444C248.469 427.813 248.511 427.624 248.57 427.433ZM449.365 422.566C444.914 422.485 441.522 422.756 440.203 422.885C440.014 424.013 439.831 425.149 439.652 426.292C443.015 426.827 446.161 427.382 449.071 427.938C449.145 426.129 449.242 424.338 449.365 422.566ZM349.359 370.304C348.998 372.103 348.574 374.138 348.1 376.388C350.237 381.128 352.072 386.256 353.525 391.693C355.807 400.24 357.161 409.537 357.536 419.101C357.539 419.17 357.541 419.239 357.543 419.308C360.912 420.87 365.533 423.573 366.921 427.111C367.948 422.801 361.318 418.16 361.316 418.158C363.513 418.944 365.445 419.707 367.143 420.441C366.705 414.02 365.848 407.849 364.525 402.124C362.954 395.332 360.745 389.163 358.052 383.783C355.593 378.79 352.74 374.477 349.863 370.92C349.695 370.712 349.527 370.507 349.359 370.304ZM545.567 378.707C545.808 385.043 546.002 392.034 546.164 399.5C546.319 406.648 546.459 414.23 546.653 422.123C550.725 423.487 553.751 424.926 555.975 426.232C555.968 425.957 555.959 425.682 555.953 425.406C555.948 425.166 555.936 424.932 555.929 424.693C555.023 418.322 553.924 412.174 552.685 406.326C550.522 396.133 547.996 386.838 545.567 378.707ZM493.416 423.699C493.388 424.129 493.36 424.559 493.329 424.99C494.134 425.318 494.854 425.62 495.477 425.89C495.469 425.697 495.462 425.504 495.454 425.312C494.69 424.757 494.014 424.219 493.416 423.699ZM473.341 419.872C473.271 420.532 473.203 421.195 473.137 421.862C476.311 423.005 479.061 424.283 481.441 425.615C481.448 425.529 481.454 425.443 481.461 425.356C479.163 423.077 475.876 421.156 473.341 419.872ZM304.075 355.982C303.172 359.113 301.846 363.14 300.293 367.903C298.399 373.711 296.144 380.677 293.884 388.592C294.415 391.252 295.01 393.964 295.667 396.724C296.837 401.635 298.198 406.701 299.693 411.882C299.802 408.518 299.953 405.263 300.127 402.14C300.561 394.379 301.115 387.425 301.698 381.595C302.282 375.764 302.878 371.069 303.477 367.809C304.076 364.548 304.69 362.71 305.345 362.71C305.688 362.71 306.028 363.214 306.352 364.168C306.894 361.801 307.449 360.5 308.034 360.5C308.774 360.5 309.506 362.575 310.111 366.294C310.717 370.013 311.207 375.392 311.518 382.035C311.828 388.678 311.934 396.559 311.986 405.277C312.014 409.762 312.023 414.469 312.053 419.338C312.409 419.192 312.772 419.044 313.143 418.896C313.136 418.901 312.694 419.245 312.057 419.825C312.068 421.626 312.083 423.449 312.102 425.291C313.219 424.433 314.689 423.483 316.621 422.462C316.499 414.491 316.686 406.844 317.009 399.698C316.632 396.147 316.237 392.846 315.843 389.836C315.059 383.846 314.305 378.997 313.906 375.59C313.508 372.183 313.463 370.21 314.045 370.029C314.627 369.85 315.768 371.49 317.198 374.677C317.409 375.147 317.625 375.652 317.848 376.189C317.798 375.795 317.751 375.416 317.708 375.051C317.258 371.202 317.207 368.974 317.864 368.77C318.17 368.675 318.611 369.027 319.16 369.792C319.17 369.691 319.18 369.591 319.191 369.491C316.019 365.61 312.822 362.543 309.991 360.125C307.639 358.556 305.647 357.162 304.075 355.982ZM197.633 420.423C197.195 421.046 196.632 421.73 195.91 422.465C195.878 423.149 195.847 423.839 195.818 424.533C196.447 424.285 197.117 424.025 197.826 423.76C197.753 422.644 197.689 421.531 197.633 420.423ZM218.116 422.006C216.711 422.644 215.236 423.378 213.749 424.215C215.242 423.791 216.737 423.425 218.222 423.109C218.187 422.741 218.152 422.373 218.116 422.006ZM472.947 423.857C473.384 423.972 473.822 424.09 474.259 424.214C473.831 423.973 473.403 423.741 472.979 423.517C472.968 423.63 472.958 423.744 472.947 423.857ZM217.741 418.438C216.278 419.063 212.739 420.668 209.59 422.864C209.617 423.248 209.643 423.632 209.672 424.017C212.112 422.862 214.874 421.778 217.999 420.824C217.917 420.024 217.83 419.229 217.741 418.438ZM97.38 419.155C97.3744 422.119 96.5514 423.246 95.3048 423.421C95.2946 423.545 95.283 423.67 95.2726 423.794C95.9475 423.421 96.6323 423.011 97.3107 422.558C97.402 421.247 97.4827 419.942 97.5539 418.643C97.4952 418.813 97.4388 418.985 97.38 419.155ZM588.194 411.326C587.653 413.879 587.139 416.49 586.655 419.151C588.409 421.043 590.476 422.52 592.481 423.654C591.046 419.004 589.71 414.382 588.518 409.818C588.409 410.319 588.302 410.821 588.194 411.326ZM565.307 417.204C565.598 418.741 565.874 420.295 566.136 421.863C566.172 421.882 566.209 421.902 566.245 421.921C565.946 419.737 565.627 417.575 565.29 415.437C565.295 416.023 565.301 416.613 565.307 417.204ZM480.711 377.303C480.235 379.558 479.722 381.99 479.184 384.583C477.539 392.499 475.667 401.9 474.246 412.395C473.96 414.511 473.692 416.672 473.448 418.874C476.386 419.484 479.186 420.203 481.777 420.96C482.28 413.037 482.415 405.331 482.207 397.968C482.005 390.722 481.468 383.8 480.711 377.303ZM125.962 413.783C125.218 416.144 124.451 418.538 123.671 420.957C124.4 420.603 125.144 420.258 125.899 419.928C125.926 417.854 125.947 415.804 125.962 413.783ZM493.763 416.678C493.728 417.746 493.682 418.819 493.631 419.896C494.162 420.22 494.703 420.539 495.249 420.855C495.188 419.673 495.12 418.506 495.047 417.357C494.608 417.115 494.178 416.888 493.763 416.678ZM210.528 377.303C209.772 383.8 209.234 390.722 209.032 397.968C208.833 405.059 208.948 412.468 209.406 420.083C212.034 419.397 214.827 418.773 217.723 418.272C217.498 416.278 217.254 414.318 216.993 412.395C215.573 401.9 213.7 392.499 212.056 384.583C211.517 381.99 211.004 379.558 210.528 377.303ZM327.261 381.573C327.322 384.886 327.36 388.382 327.387 392.032C328.974 398.356 330.428 405.78 331.552 413.989C331.821 415.952 332.068 417.96 332.296 420.009C332.323 419.952 332.347 419.894 332.372 419.837C332.852 415.507 333.482 411.341 334.212 407.376C334.545 405.57 334.896 403.805 335.264 402.083C333.56 395.566 331.327 389.602 328.679 384.312C328.219 383.378 327.744 382.465 327.261 381.573ZM197.434 415.231C197.089 415.37 196.709 415.527 196.301 415.706C196.23 416.724 196.163 417.757 196.102 418.804C196.588 418.485 197.062 418.166 197.519 417.845C197.485 416.971 197.457 416.1 197.434 415.231ZM493.849 406.091C493.903 409.349 493.881 412.659 493.781 416.01C494.184 416.151 494.587 416.297 494.989 416.448C494.924 415.464 494.852 414.494 494.777 413.538C494.497 410.881 494.182 408.39 493.849 406.091ZM197.39 406.095C197.058 408.39 196.741 410.876 196.461 413.527C196.415 414.119 196.371 414.716 196.328 415.318C196.696 415.206 197.062 415.099 197.427 414.997C197.351 411.993 197.341 409.023 197.39 406.095ZM112.91 365.682C111.387 372.104 109.751 378.5 108 384.862C108.515 388.937 108.914 393.153 109.169 397.489C109.466 402.551 109.578 407.771 109.49 413.104C110.339 410.622 111.156 408.195 111.938 405.827C112.857 392.44 113.188 379.039 112.91 365.682ZM325.794 356.474C326.182 359.43 326.508 363.121 326.759 367.423C329.77 370.712 332.726 374.581 335.412 378.997C334.858 374.806 334.326 371.117 333.895 368.009C331.698 364.204 329.332 360.813 326.951 357.868C326.566 357.392 326.18 356.927 325.794 356.474ZM338.634 360.411C340.557 362.922 342.417 365.671 344.153 368.651C344.451 369.169 344.744 369.694 345.034 370.225C345.524 369.054 345.995 367.986 346.436 367.024C344.724 365.233 343.055 363.693 341.509 362.372C340.469 361.678 339.508 361.023 338.634 360.411ZM121.276 231.389C119.959 241.931 116.503 253.041 113.097 262.95C111.042 265.784 110.367 267.645 108.885 268.23C108.313 270.036 107.76 271.839 107.238 273.657C110.574 285.85 113.322 298.204 115.504 310.675C119.497 284.818 121.508 258.672 121.331 232.55C121.313 232.163 121.294 231.776 121.276 231.389ZM119.564 165.186C117.583 165.659 115.344 166.567 112.398 168.146C107.143 173.239 102.248 181.955 92.9494 179.586C91.5283 180.77 90.1207 181.976 88.7677 183.233C87.4765 195.966 87.6328 208.814 88.9142 221.524C89.0157 221.792 89.1166 222.061 89.2189 222.328C95.7549 237.375 101.264 252.801 105.792 268.508C105.917 268.155 106.043 267.803 106.169 267.452C105.184 264.773 104.272 260.189 105.179 258.715C106.128 240.178 108.498 218.959 119.16 208.493C119.137 208.249 119.126 208.021 119.1 207.77C119.179 207.955 119.231 208.159 119.306 208.346C119.386 208.268 119.462 208.188 119.543 208.112C119.478 208.236 119.422 208.344 119.359 208.466C119.715 209.365 120.027 210.286 120.301 211.227C119.589 195.889 119.067 180.501 119.564 165.186ZM119.175 208.818C115.375 216.18 114.793 220.864 113.838 236.862C118.763 221.85 119.93 217.228 119.175 208.818ZM58.3107 206.655C60.8867 214.095 63.8443 217.463 74.5578 227.89C67.3268 214.825 64.9145 211.138 58.3107 206.655Z" fill="#00892C"/>
<path fill-rule="evenodd" clip-rule="evenodd" d="M196.994 0C194.176 3.05283 191.373 6.12342 188.596 9.21973C190.784 11.7247 191.021 15.4959 188.967 18.2842L160.197 57.3291C157.95 60.379 153.767 61.1574 150.593 59.2207C129.438 95.2543 122.533 137.863 123.651 179.452C125.07 173.435 126.745 167.472 128.739 161.58C134.627 142.316 144.198 124.963 155.951 109.226C155.681 109.045 155.421 108.84 155.176 108.61C152.747 106.331 152.625 102.514 154.904 100.085L182.513 70.6592C184.792 68.2298 188.609 68.1076 191.038 70.3867C191.188 70.5275 191.33 70.6743 191.462 70.8262C194.966 67.6481 198.519 64.5482 202.102 61.5244C198.626 64.7111 195.168 67.9256 191.75 71.1865C193.464 73.4849 193.34 76.7491 191.31 78.9131L163.702 108.339C161.945 110.212 159.273 110.711 157.028 109.798C139.396 134.143 129.283 163.209 124.31 193.231C124.33 193.529 124.349 193.827 124.37 194.125C127.3 220.608 127.913 247.268 126.416 273.816C128.379 271.26 130.436 268.77 132.569 266.346C132.463 264.904 132.321 263.677 132.071 263.137C132.006 254.444 158.815 220.913 166.514 219.562C168.2 227.529 151.081 265.756 142.301 269.67C139.34 270.818 136.363 271.983 133.669 273.689L133.483 273.782L133.332 273.834C133.268 273.742 133.211 273.593 133.16 273.398C130.504 276.983 127.995 280.671 125.702 284.472C124.523 299.665 122.66 314.81 120.15 329.85C120.296 330.078 120.443 330.307 120.588 330.536C120.38 330.704 120.166 330.867 119.949 331.028C119.68 332.62 119.405 334.21 119.121 335.799C120.243 345.681 121.023 355.616 121.472 365.583C121.66 363.344 121.745 361.433 121.804 359.842C121.865 358.211 121.923 356.917 122.023 356.029C122.122 355.142 122.279 354.654 122.554 354.592C122.829 354.531 123.215 354.904 123.648 355.717C124.08 356.53 124.57 357.797 125.023 359.467C125.476 361.136 125.874 363.213 126.148 365.686C126.421 368.158 126.542 371.004 126.46 374.154C126.398 376.706 126.214 379.464 125.885 382.389C126.049 381.828 126.211 381.272 126.369 380.721C126.395 380.059 126.422 379.408 126.451 378.771C126.726 372.891 127.161 368.13 127.696 364.838C128.232 361.547 128.88 359.711 129.534 359.71C129.951 359.71 130.35 360.454 130.74 361.836C130.741 361.829 130.743 361.823 130.744 361.816C131.223 358.822 131.535 356.101 131.739 353.729C131.943 351.356 132.03 349.338 132.092 347.663C132.154 345.989 132.214 344.659 132.317 343.748C132.419 342.837 132.58 342.335 132.862 342.271C133.145 342.208 133.541 342.592 133.986 343.427C134.43 344.262 134.932 345.564 135.398 347.278C135.863 348.993 136.272 351.125 136.553 353.664C136.834 356.203 136.958 359.126 136.874 362.361C136.794 365.631 136.524 369.23 136.007 373.08C135.49 376.926 134.742 381.044 133.795 385.326C134.031 388.15 134.255 391.158 134.46 394.326C134.618 393.805 134.777 393.288 134.929 392.774C135.968 389.267 136.876 385.955 137.612 382.871C138.349 379.788 138.906 376.935 139.327 374.323C139.74 371.742 140.009 369.398 140.185 367.353C140.361 365.307 140.436 363.567 140.489 362.124C140.543 360.681 140.594 359.535 140.683 358.749C140.771 357.963 140.91 357.531 141.153 357.477C141.397 357.422 141.738 357.753 142.121 358.473C142.504 359.193 142.937 360.314 143.338 361.792C143.739 363.27 144.092 365.108 144.334 367.297C144.577 369.485 144.683 372.005 144.611 374.794C144.541 377.612 144.31 380.715 143.864 384.033C143.418 387.351 142.773 390.904 141.955 394.6C140.562 400.917 138.696 407.75 136.506 414.932C136.135 416.149 135.751 417.378 135.361 418.618C135.366 420.557 135.353 422.523 135.316 424.511C137.751 423.371 140.803 422.201 144.61 421.116C144.791 413.585 144.926 406.343 145.074 399.5C145.313 388.503 145.616 378.536 146.05 370.175C146.484 361.815 147.045 355.056 147.737 350.375C148.43 345.695 149.234 343.101 150.062 343.1C150.89 343.1 151.682 345.678 152.425 350.337C153.168 354.996 153.872 361.726 154.525 370.062C155.046 376.732 155.527 384.437 155.888 392.92C155.919 391.392 155.95 389.881 155.983 388.389C156.228 377.095 156.539 366.858 156.985 358.273C157.43 349.688 158.005 342.746 158.717 337.939C159.428 333.133 160.254 330.468 161.105 330.468C161.955 330.468 162.768 333.116 163.531 337.9C163.965 340.619 164.383 344.025 164.788 348.029C165.022 347.55 165.259 347.303 165.499 347.303C166.232 347.303 166.932 349.585 167.59 353.709C168.248 357.833 168.872 363.79 169.449 371.17C170.027 378.55 170.552 387.363 170.877 397.162C171.08 403.276 171.202 409.78 171.174 416.568C172.36 412.418 173.443 408.357 174.383 404.41C175.954 397.811 177.117 391.535 177.814 385.627C178.287 381.638 178.568 377.817 178.644 374.258C178.719 370.698 178.59 367.393 178.339 364.354C177.795 357.743 176.616 352.449 175.767 348.781C175.342 346.947 175.015 345.507 174.854 344.493C174.692 343.48 174.707 342.902 174.964 342.778C174.996 342.763 175.035 342.751 175.074 342.75C175.349 342.746 175.794 343.09 176.375 343.801C177.04 344.614 177.885 345.906 178.81 347.646C179.735 349.385 180.734 351.575 181.687 354.229C182.639 356.884 183.536 360.01 184.232 363.524C184.868 366.747 185.323 370.296 185.559 374.119C185.795 377.942 185.8 382.041 185.531 386.318C185.391 388.534 185.185 390.798 184.916 393.104C185.545 390.06 186.218 387.221 186.913 384.619C188.519 378.61 190.24 373.865 191.671 370.677C193.101 367.489 194.243 365.85 194.824 366.029C195.406 366.21 195.361 368.183 194.963 371.59C194.565 374.997 193.81 379.846 193.027 385.836C192.55 389.48 192.07 393.551 191.624 397.976C192.042 396.418 192.476 394.939 192.924 393.548C194.535 388.539 196.281 384.654 197.733 382.082C198.483 380.752 199.148 379.772 199.689 379.165C200.45 374.334 201.367 369.733 202.394 365.402C204.653 355.873 207.41 347.66 210.139 341.023C212.867 334.387 215.541 329.308 217.626 325.975C219.711 322.642 221.222 321.045 221.83 321.328C222.438 321.612 222.08 323.751 221.13 327.487C220.18 331.223 218.632 336.564 216.925 343.272C215.327 349.551 213.615 357.031 212.195 365.526C214.077 369.654 216.401 375.477 218.775 382.769C220.194 387.129 221.629 392.008 222.967 397.338C222.112 392.512 221.21 388.053 220.374 384.028C218.918 377.021 217.671 371.345 216.944 367.375C216.218 363.404 216.023 361.119 216.585 360.93C217.148 360.741 218.399 362.668 220.125 366.353C221.852 370.038 224.061 375.478 226.322 382.424C226.594 383.258 226.865 384.113 227.137 384.989C226.342 380.729 225.535 376.742 224.772 373.067C223.083 364.937 221.635 358.353 220.792 353.747C219.949 349.142 219.722 346.49 220.374 346.27C221.027 346.05 222.479 348.285 224.483 352.561C226.486 356.837 229.047 363.148 231.671 371.206C234.295 379.264 236.974 389.047 239.02 400.153C240.258 406.877 241.246 414.1 241.808 421.688C245.449 422.017 247.874 422.557 248.405 422.947C248.403 422.947 245.848 422.637 241.873 422.566C241.983 424.144 242.07 425.737 242.141 427.344C244.388 426.94 246.758 426.539 249.242 426.151C249.695 425.526 250.351 424.886 251.258 424.238C250.449 419.27 249.541 414.439 248.553 409.778C244.331 389.879 238.891 373.008 234.885 360.725C232.855 354.5 231.167 349.39 230.166 345.672C229.663 343.801 229.313 342.233 229.193 341.066C229.131 340.476 229.136 339.963 229.193 339.568C229.219 339.345 229.271 339.023 229.38 338.856C229.489 338.69 229.642 338.647 229.755 338.67C229.868 338.693 229.937 338.786 230.055 338.856C230.173 338.927 230.352 338.96 230.504 339.193C230.738 339.447 231.025 339.778 231.365 340.241C232.033 341.139 232.879 342.401 233.911 344.061C234.508 345.017 235.154 346.096 235.848 347.291C235.703 346.614 235.6 346.014 235.547 345.501C235.493 344.978 235.497 344.524 235.547 344.175C235.571 343.977 235.616 343.693 235.713 343.545C235.81 343.397 235.945 343.36 236.045 343.38C236.145 343.4 236.206 343.482 236.311 343.545C236.415 343.607 236.574 343.636 236.708 343.843C236.915 344.068 237.169 344.361 237.471 344.771C238.061 345.566 238.811 346.683 239.725 348.152C241.526 351.042 243.866 355.164 246.486 360.483C249.064 365.712 251.879 372.063 254.641 379.377C257.403 386.692 260.101 394.962 262.398 404.039C264.116 410.826 265.609 418.07 266.731 425.634C265.567 416.316 264.033 407.361 262.249 398.945C257.914 378.509 252.328 361.183 248.213 348.569C246.129 342.177 244.395 336.929 243.367 333.11C242.851 331.189 242.491 329.579 242.367 328.381C242.305 327.775 242.31 327.248 242.367 326.843C242.395 326.614 242.448 326.284 242.56 326.112C242.672 325.941 242.828 325.897 242.944 325.92C243.061 325.943 243.131 326.041 243.252 326.113C243.373 326.186 243.558 326.22 243.714 326.46C243.954 326.721 244.248 327.061 244.598 327.536C245.283 328.458 246.153 329.754 247.213 331.459C249.303 334.811 252.017 339.593 255.058 345.764C258.048 351.83 261.314 359.197 264.518 367.683C265.79 371.053 267.05 374.599 268.275 378.309C268.299 376.633 268.362 374.994 268.461 373.397C268.728 369.078 269.242 365.069 269.961 361.429C270.747 357.459 271.76 353.928 272.836 350.929C273.912 347.93 275.041 345.456 276.086 343.491C277.131 341.526 278.085 340.066 278.836 339.147C279.493 338.344 279.995 337.955 280.305 337.96V337.958C280.349 337.959 280.393 337.972 280.43 337.989C280.721 338.129 280.737 338.782 280.555 339.927C280.415 340.808 280.163 341.974 279.836 343.409C280.252 342.963 280.577 342.747 280.795 342.75C280.834 342.751 280.873 342.763 280.905 342.778C281.163 342.902 281.177 343.48 281.016 344.493C280.854 345.507 280.527 346.947 280.103 348.781C279.253 352.449 278.074 357.743 277.53 364.354C277.279 367.393 277.15 370.698 277.226 374.258C277.301 377.817 277.582 381.638 278.056 385.627C278.63 390.491 279.518 395.605 280.692 400.942C281.837 397.033 283.044 393.301 284.281 389.76C283.536 384.94 283.019 380.25 282.734 375.735C282.422 370.773 282.427 366.017 282.701 361.582C282.975 357.147 283.503 353.03 284.242 349.291C285.049 345.214 286.09 341.588 287.194 338.508C288.299 335.428 289.459 332.888 290.532 330.87C291.606 328.852 292.586 327.352 293.357 326.409C294.031 325.584 294.546 325.185 294.864 325.189C294.91 325.19 294.956 325.203 294.993 325.221C295.292 325.364 295.309 326.035 295.121 327.211C294.934 328.387 294.555 330.058 294.063 332.186C293.077 336.44 291.709 342.583 291.078 350.253C290.787 353.778 290.637 357.613 290.725 361.742C290.793 364.971 291.009 368.386 291.361 371.935C292.396 369.627 293.412 367.474 294.393 365.483C296.932 360.33 299.208 356.3 300.986 353.426C300.246 352.701 299.908 352.186 300.022 351.906C300.152 351.607 300.814 351.601 301.969 351.869C302.525 351.012 303.004 350.316 303.408 349.771C303.71 349.361 303.964 349.068 304.171 348.843C304.305 348.636 304.464 348.607 304.569 348.545C304.673 348.482 304.734 348.399 304.834 348.379L304.835 348.38C304.935 348.36 305.07 348.398 305.166 348.545C305.263 348.693 305.309 348.977 305.332 349.175C305.382 349.524 305.386 349.978 305.332 350.501C305.267 351.131 305.125 351.892 304.924 352.767C306.932 353.469 309.524 354.502 312.647 355.844C314.973 357.203 317.515 358.949 320.14 361.12C320.484 358.446 320.831 356.143 321.178 354.255C321.332 353.417 321.487 352.66 321.643 351.989C320.125 350.479 318.649 349.139 317.26 347.952C310.527 343.46 306.669 340.38 307.023 339.512C307.396 338.655 312.004 340.124 319.987 343.555C323.652 345.696 327.841 348.769 332.055 352.926C332.722 353.584 333.388 354.272 334.054 354.986C335.8 355.325 339.148 356.558 343.861 358.583C345.482 359.531 347.222 360.69 349.024 362.078C349.587 361.235 350.014 360.839 350.284 360.93C350.611 361.04 350.681 361.854 350.541 363.294C351.767 364.31 353.014 365.429 354.262 366.66C357.894 370.243 361.528 374.786 364.691 380.215C368.019 386.001 370.801 392.71 372.769 400.077C373.106 401.341 373.418 402.625 373.708 403.925C373.69 402.721 373.666 401.524 373.633 400.335C373.283 387.782 372.046 376.09 370.383 365.67C368.72 355.25 366.645 346.124 364.717 338.547C362.789 330.969 361.04 324.936 359.967 320.715C358.894 316.495 358.488 314.078 359.175 313.757C359.862 313.436 361.57 315.242 363.925 319.007C366.28 322.772 369.301 328.509 372.383 336.006C373.718 339.252 375.058 342.833 376.357 346.724C376.163 345.486 375.966 344.261 375.761 343.052C373.696 330.866 371.12 320.193 368.727 311.331C366.333 302.469 364.164 295.413 362.831 290.477C361.499 285.541 360.995 282.714 361.848 282.339C362.701 281.964 364.821 284.075 367.744 288.479C370.668 292.882 374.417 299.591 378.243 308.358C382.07 317.126 385.937 327.976 389.105 340.566C392.273 353.156 394.706 367.48 395.673 382.958C396.488 396.061 396.312 409.966 394.975 424.226C395.823 425.371 396.852 426.377 397.942 427.25C398.828 417.111 399.109 407.267 398.847 397.968C398.537 386.856 397.442 376.506 395.97 367.282C394.498 358.059 392.661 349.98 390.954 343.272C389.247 336.564 387.699 331.223 386.749 327.487C385.799 323.751 385.441 321.612 386.049 321.328C386.657 321.044 388.169 322.642 390.253 325.975C392.338 329.308 395.012 334.387 397.74 341.023C400.469 347.66 403.226 355.873 405.486 365.402C407.745 374.932 409.48 385.774 410.169 397.489C410.409 401.59 410.527 405.795 410.518 410.08C412.376 404.578 414.07 399.365 415.523 394.468C416.696 390.505 417.722 386.763 418.554 383.279C419.385 379.796 420.015 376.574 420.491 373.623C420.958 370.708 421.262 368.059 421.46 365.748C421.659 363.438 421.743 361.472 421.804 359.842C421.865 358.211 421.923 356.917 422.023 356.029C422.122 355.142 422.279 354.654 422.554 354.592C422.829 354.531 423.215 354.904 423.648 355.717C424.08 356.53 424.57 357.797 425.023 359.467C425.476 361.136 425.874 363.213 426.148 365.686C426.421 368.158 426.542 371.004 426.46 374.154C426.398 376.706 426.214 379.464 425.885 382.389C426.988 378.627 427.958 375.065 428.754 371.732C429.608 368.155 430.255 364.847 430.744 361.816C431.223 358.822 431.535 356.101 431.739 353.729C431.943 351.356 432.03 349.338 432.092 347.663C432.154 345.989 432.214 344.659 432.317 343.748C432.419 342.837 432.58 342.335 432.862 342.271C433.145 342.208 433.541 342.592 433.986 343.427C434.43 344.262 434.932 345.564 435.398 347.278C435.863 348.993 436.272 351.125 436.553 353.664C436.834 356.203 436.958 359.126 436.874 362.361C436.794 365.631 436.524 369.23 436.007 373.08C435.49 376.93 434.741 381.053 433.793 385.34C432.176 392.669 430.012 400.595 427.471 408.928C425.599 415.067 423.506 421.46 421.402 428H423.16C424.986 422.549 426.819 417.312 428.538 412.333C430.96 405.32 433.148 398.777 434.929 392.774C435.968 389.267 436.876 385.955 437.612 382.871C438.349 379.788 438.906 376.935 439.327 374.323C439.74 371.742 440.009 369.398 440.185 367.353C440.361 365.307 440.436 363.567 440.489 362.124C440.543 360.681 440.594 359.535 440.683 358.749C440.771 357.963 440.91 357.531 441.153 357.477C441.397 357.422 441.738 357.753 442.121 358.473C442.504 359.193 442.937 360.314 443.338 361.792C443.739 363.27 444.092 365.108 444.334 367.297C444.405 367.935 444.462 368.602 444.509 369.295C446.282 365.137 448.029 361.358 449.689 357.991C452.649 351.982 455.293 347.325 457.327 344.061C458.359 342.4 459.207 341.139 459.874 340.241C460.215 339.778 460.502 339.447 460.736 339.193C460.887 338.96 461.067 338.927 461.185 338.856C461.303 338.786 461.371 338.692 461.485 338.669C461.598 338.646 461.75 338.69 461.86 338.856C461.969 339.023 462.019 339.345 462.046 339.568C462.102 339.963 462.107 340.476 462.046 341.066C461.925 342.233 461.575 343.801 461.072 345.672C460.072 349.39 458.384 354.5 456.355 360.725C452.348 373.008 446.909 389.879 442.687 409.778C441.803 413.947 440.983 418.251 440.24 422.668C441.654 422.207 444.983 421.669 449.446 421.473C450.011 413.964 450.992 406.814 452.219 400.153C454.265 389.047 456.945 379.264 459.569 371.206C462.192 363.148 464.754 356.837 466.757 352.561C468.76 348.285 470.212 346.05 470.864 346.27C471.517 346.489 471.29 349.141 470.447 353.747C469.604 358.353 468.157 364.937 466.468 373.067C465.71 376.717 464.908 380.676 464.118 384.904C464.381 384.058 464.645 383.231 464.907 382.424C467.169 375.478 469.377 370.037 471.104 366.353C472.83 362.667 474.082 360.74 474.645 360.93C475.207 361.119 475.012 363.405 474.285 367.375C473.559 371.345 472.31 377.021 470.855 384.028C470.012 388.087 469.101 392.586 468.239 397.459C469.586 392.082 471.035 387.162 472.465 382.769C474.839 375.477 477.16 369.653 479.042 365.525C477.622 357.03 475.911 349.551 474.314 343.272C472.607 336.564 471.06 331.223 470.11 327.487C469.16 323.752 468.801 321.613 469.408 321.328C470.017 321.044 471.529 322.642 473.613 325.975C475.698 329.308 478.371 334.387 481.1 341.023C483.828 347.66 486.586 355.872 488.846 365.402C489.872 369.732 490.788 374.334 491.549 379.164C492.09 379.771 492.756 380.751 493.507 382.082C494.959 384.654 496.704 388.539 498.316 393.548C498.758 394.922 499.186 396.382 499.599 397.919C499.154 393.516 498.677 389.464 498.202 385.836C497.419 379.846 496.665 374.997 496.267 371.59C495.869 368.183 495.823 366.21 496.404 366.029C496.986 365.849 498.127 367.489 499.558 370.677C500.988 373.865 502.711 378.61 504.317 384.619C505.012 387.221 505.683 390.06 506.313 393.104C506.044 390.798 505.838 388.534 505.697 386.318C505.429 382.041 505.434 377.942 505.67 374.119C505.906 370.296 506.361 366.747 506.998 363.524C507.694 360.01 508.591 356.884 509.543 354.229C510.495 351.575 511.495 349.385 512.42 347.646C513.345 345.906 514.19 344.614 514.855 343.801C515.436 343.09 515.88 342.746 516.154 342.75C516.194 342.751 516.233 342.763 516.265 342.778C516.522 342.902 516.538 343.48 516.376 344.493C516.215 345.507 515.888 346.947 515.463 348.781C514.613 352.449 513.434 357.743 512.89 364.354C512.638 367.393 512.511 370.698 512.586 374.258C512.662 377.817 512.943 381.638 513.416 385.627C514.113 391.535 515.275 397.811 516.846 404.41C517.788 408.367 518.875 412.441 520.065 416.603C520.036 409.802 520.159 403.287 520.362 397.162C520.688 387.363 521.213 378.55 521.79 371.17C522.367 363.79 522.991 357.833 523.649 353.709C524.306 349.585 525.007 347.303 525.74 347.303C525.978 347.303 526.212 347.544 526.443 348.012C526.847 344.015 527.265 340.615 527.698 337.9C528.461 333.116 529.274 330.468 530.124 330.468C530.974 330.468 531.8 333.132 532.512 337.939C533.223 342.746 533.8 349.688 534.245 358.273C534.691 366.858 535.001 377.095 535.246 388.389C535.28 389.933 535.311 391.498 535.344 393.081C535.705 384.534 536.19 376.774 536.715 370.062C537.162 364.343 537.637 359.38 538.129 355.323C537.432 353.128 536.847 351.203 536.409 349.578C535.964 347.922 535.654 346.534 535.547 345.501C535.493 344.978 535.497 344.524 535.547 344.175C535.571 343.977 535.616 343.693 535.713 343.545C535.81 343.397 535.945 343.36 536.045 343.38C536.145 343.4 536.206 343.482 536.311 343.545C536.415 343.607 536.574 343.636 536.708 343.843C536.915 344.068 537.169 344.361 537.471 344.771C537.973 345.447 538.588 346.356 539.323 347.517C539.916 344.65 540.535 343.1 541.177 343.1C542.005 343.1 542.809 345.694 543.502 350.375C543.741 351.993 543.964 353.859 544.172 355.953C544.912 357.352 545.687 358.861 546.486 360.483C549.064 365.712 551.879 372.063 554.641 379.377C555.544 381.77 556.44 384.267 557.318 386.859C557.494 384.667 557.675 382.578 557.862 380.604C554.538 368.058 551.031 357.209 548.213 348.569C546.129 342.177 544.395 336.929 543.367 333.11C542.851 331.189 542.491 329.579 542.367 328.381C542.305 327.775 542.31 327.248 542.367 326.843C542.395 326.614 542.448 326.284 542.56 326.112C542.672 325.941 542.828 325.897 542.944 325.92C543.061 325.943 543.131 326.041 543.252 326.113C543.373 326.186 543.558 326.22 543.714 326.46C543.954 326.721 544.248 327.061 544.598 327.536C545.283 328.458 546.153 329.754 547.213 331.459C549.302 334.811 552.017 339.593 555.058 345.764C557.084 349.875 559.237 354.584 561.411 359.833C561.508 359.751 561.606 359.71 561.704 359.71C562.359 359.71 563.007 361.546 563.543 364.838C563.57 365 563.591 365.167 563.617 365.337C563.917 366.109 564.219 366.891 564.518 367.683C565.79 371.053 567.05 374.599 568.275 378.309C568.299 376.633 568.362 374.994 568.461 373.397C568.728 369.078 569.242 365.069 569.961 361.429C570.747 357.459 571.76 353.928 572.836 350.929C573.912 347.93 575.041 345.456 576.086 343.491C577.131 341.526 578.085 340.066 578.836 339.147C579.493 338.344 579.995 337.955 580.305 337.96V337.958C580.349 337.959 580.393 337.972 580.43 337.989C580.721 338.129 580.737 338.782 580.555 339.927C580.414 340.808 580.163 341.974 579.836 343.409C580.252 342.963 580.577 342.747 580.795 342.75C580.834 342.751 580.873 342.763 580.905 342.778C581.163 342.902 581.177 343.48 581.016 344.493C580.854 345.507 580.527 346.947 580.103 348.781C579.253 352.449 578.074 357.743 577.53 364.354C577.279 367.393 577.15 370.698 577.226 374.258C577.301 377.817 577.582 381.638 578.056 385.627C578.63 390.491 579.518 395.605 580.692 400.942C581.837 397.033 583.044 393.301 584.281 389.76C583.536 384.94 583.019 380.25 582.734 375.735C582.422 370.773 582.427 366.017 582.701 361.582C582.975 357.147 583.503 353.03 584.242 349.291C585.049 345.214 586.09 341.588 587.194 338.508C588.299 335.428 589.459 332.888 590.532 330.87C591.606 328.852 592.586 327.352 593.357 326.409C594.031 325.584 594.546 325.185 594.864 325.189C594.91 325.19 594.956 325.203 594.993 325.221C595.292 325.364 595.309 326.035 595.121 327.211C594.934 328.387 594.555 330.058 594.063 332.186C593.077 336.44 591.709 342.583 591.078 350.253C590.787 353.778 590.637 357.613 590.725 361.742C590.793 364.971 591.009 368.386 591.361 371.935C592.396 369.627 593.412 367.474 594.393 365.483C597.014 360.164 599.353 356.042 601.154 353.152C602.068 351.683 602.818 350.566 603.408 349.771C603.71 349.361 603.964 349.068 604.171 348.843C604.305 348.636 604.464 348.607 604.568 348.545C604.673 348.482 604.734 348.399 604.834 348.379L604.835 348.38C604.935 348.36 605.07 348.398 605.166 348.545C605.263 348.693 605.309 348.977 605.332 349.175C605.382 349.524 605.386 349.978 605.332 350.501C605.225 351.534 604.915 352.922 604.47 354.578C603.584 357.87 602.09 362.393 600.293 367.903C598.399 373.711 596.144 380.677 593.884 388.592C594.415 391.252 595.01 393.964 595.667 396.724C596.837 401.635 598.198 406.701 599.693 411.882C599.802 408.518 599.953 405.263 600.127 402.14C600.56 394.379 601.115 387.425 601.698 381.595C602.282 375.764 602.878 371.069 603.477 367.809C604.076 364.548 604.69 362.71 605.345 362.71C605.688 362.71 606.028 363.214 606.352 364.168C606.894 361.801 607.449 360.5 608.034 360.5C608.774 360.5 609.506 362.575 610.111 366.294C610.717 370.013 611.207 375.392 611.518 382.035C611.828 388.678 611.934 396.559 611.986 405.277C612.012 409.487 612.022 413.892 612.048 418.443C613.868 420.385 615.419 422.565 616.672 424.588C616.672 424.577 616.672 424.566 616.672 424.556C616.664 424.208 616.644 423.873 616.638 423.524C616.481 415.171 616.672 407.161 617.009 399.698C616.632 396.147 616.237 392.846 615.843 389.836C615.059 383.846 614.305 378.997 613.906 375.59C613.508 372.183 613.463 370.21 614.045 370.029C614.627 369.85 615.768 371.49 617.198 374.677C617.409 375.147 617.625 375.652 617.848 376.189C617.798 375.795 617.751 375.416 617.708 375.051C617.258 371.202 617.207 368.974 617.864 368.77C618.17 368.675 618.611 369.027 619.16 369.792C619.822 363.239 620.499 357.952 621.178 354.255C621.873 350.473 622.585 348.34 623.345 348.34C624.104 348.34 624.855 350.472 625.477 354.29C626.098 358.109 626.603 363.633 626.922 370.455C627.213 376.69 627.328 383.987 627.387 392.032C628.974 398.356 630.428 405.78 631.552 413.989C631.832 416.033 632.089 418.127 632.325 420.264C632.811 415.78 633.458 411.471 634.212 407.376C635.085 402.636 636.093 398.176 637.161 394.038C636.639 388.849 636.079 384.076 635.521 379.809C634.611 372.859 633.736 367.233 633.275 363.28C632.827 359.452 632.763 357.184 633.373 356.855L633.435 356.829C634.109 356.62 635.434 358.522 637.094 362.22C638.663 365.718 640.534 370.832 642.308 377.273C643.934 372.745 645.47 369.071 646.743 366.353C648.47 362.668 649.722 360.741 650.284 360.93C650.847 361.119 650.652 363.404 649.925 367.375C649.198 371.345 647.951 377.021 646.495 384.028C646.102 385.922 645.694 387.911 645.283 389.989C646.101 394.128 646.849 398.573 647.491 403.268C648.175 408.264 648.731 413.55 649.159 419.038C654.895 417.649 659.168 416.975 659.505 416.924C656.036 418.909 652.565 421.126 649.459 423.212C649.562 424.794 649.654 426.391 649.736 428H650.004V428.056C667.164 424.495 687.529 423.905 688.004 423.894C687.487 423.953 659.143 427.325 651.014 436.17C667.333 434.129 684.993 434.368 684.993 434.368C684.993 434.368 666.308 434.721 650.004 440.58V441H39.0041V440.946C22.4735 434.735 3.0148 434.368 3.0148 434.368C3.0148 434.368 20.6749 434.129 36.9943 436.17C28.8644 427.324 0.515408 423.953 0.00405699 423.895C0.483571 423.906 21.6438 424.518 39.0041 428.268V428H39.089C39.0049 426.442 38.8992 424.896 38.7716 423.363C35.6096 421.234 32.0554 418.957 28.5031 416.924C28.827 416.973 32.8569 417.609 38.3341 418.915C37.7868 414.099 37.0124 409.447 35.9914 405.031C34.2173 397.358 31.7215 390.389 28.6789 384.312C25.9009 378.672 22.678 373.8 19.4289 369.781C16.1798 365.762 12.892 362.604 9.99136 360.125C3.43499 355.751 -0.32149 352.752 0.0216351 351.906C0.38571 351.072 4.87264 352.503 12.6466 355.844C16.2152 357.929 20.2935 360.921 24.3966 364.969C28.4998 369.016 32.6059 374.148 36.1779 380.28C39.9379 386.816 43.0799 394.396 45.3029 402.719C45.5594 403.679 45.802 404.65 46.0343 405.629C45.5042 401.641 44.8178 397.774 43.9611 394.068C42.1392 386.188 39.5761 379.031 36.4513 372.791C33.5986 366.998 30.2881 361.995 26.9513 357.868C23.6147 353.741 20.2387 350.498 17.2599 347.952C10.5267 343.46 6.66947 340.38 7.02261 339.512C7.39649 338.655 12.0044 340.124 19.9875 343.555C23.6522 345.696 27.8408 348.769 32.0548 352.926C32.7223 353.584 33.3884 354.272 34.0539 354.986C35.7997 355.325 39.1475 356.558 43.8605 358.583C47.0195 360.429 50.6299 363.077 54.2619 366.66C57.894 370.243 61.5284 374.786 64.6906 380.215C68.019 386.001 70.8009 392.71 72.7687 400.077C73.1063 401.341 73.4179 402.625 73.7082 403.925C73.6904 402.721 73.6664 401.524 73.633 400.335C73.2832 387.782 72.0464 376.09 70.383 365.67C68.7196 355.25 66.6454 346.124 64.7169 338.547C62.7885 330.969 61.0403 324.936 59.9669 320.715C58.8937 316.495 58.4883 314.078 59.175 313.757C59.862 313.436 61.5699 315.242 63.925 319.007C66.2801 322.772 69.3007 328.509 72.383 336.006C75.0903 342.591 77.8226 350.55 80.1769 359.684C79.8952 357.629 79.5957 355.615 79.2814 353.646C77.5732 342.947 75.4424 333.575 73.4621 325.792C71.4817 318.01 69.6875 311.814 68.5851 307.479C67.4827 303.144 67.066 300.662 67.7716 300.333C68.4772 300.004 70.231 301.858 72.6496 305.725C75.0681 309.591 78.1698 315.483 81.3351 323.182C84.5004 330.881 87.6993 340.408 90.3205 351.463C92.9416 362.519 94.9551 375.097 95.755 388.688C95.8355 390.061 95.9022 391.444 95.9591 392.836C96.4384 391.35 96.9115 389.863 97.3781 388.373C96.8584 380.867 96.0093 373.794 94.9699 367.282C93.4975 358.059 91.6613 349.98 89.9543 343.272C88.2473 336.564 86.6994 331.223 85.7492 327.487C84.799 323.751 84.4407 321.612 85.049 321.328C85.6572 321.045 87.1686 322.642 89.2531 325.975C91.3379 329.308 94.0119 334.387 96.7404 341.023C99.3813 347.447 102.047 355.347 104.264 364.489C106.846 354.693 109.153 344.822 111.172 334.893C110.936 332.353 110.677 329.818 110.396 327.285C108.543 324.453 106.599 321.674 104.585 318.942C100.778 317.594 96.8119 316.779 92.8546 315.979C82.2396 313.281 59.4853 282.535 49.3683 262.57C36.9127 265.238 24.882 266.489 20.9728 264.753C22.5198 260.912 32.8256 254.099 44.3586 248.141C44.359 248.122 44.3445 248.098 44.3449 248.08C56.0642 248.119 104.196 290.859 106.311 303.72C105.966 305.003 106.354 308.482 106.746 311.901C107.417 312.686 108.082 313.476 108.739 314.271C105.938 294.755 101.736 275.498 96.0578 256.688C96.0313 256.613 96.0042 256.538 95.9777 256.463C94.5959 254.981 93.1805 253.539 91.7404 252.104C90.0649 252.285 88.6733 251.022 85.5539 249.565C72.6607 237.406 58.1049 222.095 57.9923 206.441C57.8826 206.368 57.7862 206.301 57.674 206.227C57.7832 206.254 57.8895 206.287 57.9982 206.315C57.9978 206.123 57.9668 205.928 57.9709 205.735C58.045 205.959 58.1227 206.158 58.1964 206.374C71.7292 210.084 81.9156 224.96 89.8986 239.281C83.925 222.316 78.2041 205.193 74.5636 187.625C65.4374 185.539 64.445 172.308 61.8937 163.56C58.5638 158.67 56.0349 156.048 53.2814 154.186C55.4961 155.406 58.1727 157.41 60.9191 159.868C60.0663 156.269 59.5683 152.947 59.5685 150.426C59.8771 153.733 60.9959 157.228 63.7599 162.561C66.1194 165.137 69.1054 167.662 71.7492 170.448C71.1338 165.225 70.745 159.956 70.63 154.634C70.1292 145.695 70.665 136.868 72.008 128.123C71.9841 128.128 71.9605 128.134 71.9367 128.138C70.948 126.142 70.0335 124.106 69.174 122.052C69.1167 121.969 69.0625 121.902 68.9923 121.778C60.8652 118.624 62.7018 106.743 62.214 98.582C60.33 93.7792 58.6883 91.061 56.7072 88.9443C58.3539 90.4102 60.2413 92.6343 62.1007 95.2578C62.0732 92.0345 62.2929 89.1147 62.7814 86.9727C62.4031 89.8421 62.6763 93.0299 63.9923 98.0957C67.9259 105.009 75.5736 112.44 71.1144 121.834C71.5864 122.823 72.0682 123.809 72.5617 124.787C74.7708 112.31 78.5685 99.9937 83.2834 87.749L83.2843 87.751C83.651 87.9788 83.3808 87.653 83.7599 87.8496C82.142 92.064 80.7338 96.3041 79.5246 100.563C83.0081 97.353 86.5429 94.1919 90.1164 91.1094C86.4741 94.5201 82.8533 97.9517 79.2814 101.429C75.6887 114.378 73.9232 127.499 73.6515 140.593C74.1206 139.811 74.5977 139.034 75.0841 138.264C75.1192 138.169 75.1423 138.086 75.2033 137.957C73.1243 129.491 83.9086 124.179 90.3127 119.098C93.1654 114.799 94.449 111.895 95.0461 109.058C94.7902 111.247 94.0526 114.069 92.9709 117.097C95.595 115.225 98.1119 113.729 100.147 112.9C97.5791 114.237 95.1255 116.29 91.7316 120.274C88.327 127.463 86.6282 137.991 76.3752 139.729C75.4185 141.421 74.4846 143.13 73.6154 144.86C73.6561 155.603 74.6804 166.313 76.507 176.882C77.7446 179.345 78.4136 182.076 78.1154 185.206C78.3638 186.371 78.6221 187.533 78.8888 188.693C80.0204 190.099 81.1734 191.486 82.3625 192.831C81.7401 193.395 81.037 193.84 80.3068 194.146C80.2595 194.088 80.2124 194.03 80.1652 193.972C81.5156 199.274 83.0515 204.524 84.7443 209.707C84.6035 204.066 84.726 198.399 85.1798 192.702C87.0244 153.262 107.584 116.572 131.777 84.3057C131.762 84.3286 131.745 84.3511 131.73 84.374C131.743 84.3558 131.757 84.3376 131.771 84.3193C121.5 99.23 111.581 114.429 103.858 130.596C99.0826 140.011 95.5013 149.725 92.9513 159.608C93.2764 159.204 93.6055 158.804 93.9357 158.404C93.9799 158.32 94.0116 158.245 94.0841 158.132C93.1248 150.037 103.897 146.267 110.522 142.236C113.712 138.549 115.263 135.988 116.158 133.416C115.66 135.424 114.633 137.966 113.259 140.664C115.949 139.208 118.493 138.091 120.505 137.54C117.932 138.505 115.382 140.148 111.719 143.484C107.668 149.798 104.831 159.399 94.9787 159.905C93.8932 161.356 92.8267 162.824 91.8166 164.318C90.629 169.617 89.7269 174.958 89.088 180.323C90.1512 179.454 91.2336 178.611 92.3293 177.79C92.3901 177.719 92.4373 177.654 92.5314 177.562C93.5351 169.237 104.457 168.63 111.574 166.556C115.412 163.821 117.457 161.728 118.895 159.433C117.959 161.283 116.407 163.511 114.493 165.792C116.31 165.369 118.038 165.066 119.572 164.912C120.11 148.752 121.787 132.674 125.581 116.82C129.923 95.8403 138.427 76.4097 149.486 58.3955C146.763 55.9281 146.297 51.7505 148.524 48.7285L177.294 9.68262C179.669 6.45928 184.208 5.77135 187.432 8.14648C187.748 8.37985 188.04 8.63539 188.307 8.90723C191.169 5.8888 194.069 2.92 196.994 0ZM38.6339 360.411C40.557 362.922 42.4174 365.671 44.1535 368.651C48.0148 375.364 51.2417 383.146 53.5246 391.693C55.8074 400.24 57.1611 409.537 57.5363 419.101C57.5974 420.658 57.621 422.219 57.633 423.754C57.6379 424.268 57.6387 424.78 57.6378 425.29C59.4397 426.125 61.1604 427.028 62.7404 428H67.4865C67.4855 427.941 67.4856 427.882 67.4845 427.823C67.4604 426.579 67.4002 425.319 67.3459 424.062C67.0125 416.339 66.095 408.917 64.5246 402.124C62.9541 395.332 60.7454 389.163 58.0519 383.783C55.5928 378.79 52.7396 374.477 49.8634 370.92C46.9873 367.362 44.0767 364.566 41.5089 362.372C40.4687 361.678 39.5083 361.023 38.6339 360.411ZM125.156 422.118C123.304 423.863 122.054 425.946 123.121 428H123.16C123.827 426.01 124.494 424.049 125.156 422.118ZM144.47 426.518C144.147 427.01 143.935 427.506 143.86 428H144.429C144.443 427.505 144.456 427.011 144.47 426.518ZM218.451 425.721C216.56 426.403 214.936 427.165 213.353 428H218.629C218.574 427.236 218.514 426.477 218.451 425.721ZM472.685 427.015C472.66 427.342 472.634 427.671 472.611 428H474.658C474.012 427.659 473.36 427.331 472.685 427.015ZM439.463 427.528C439.508 427.687 439.542 427.844 439.564 428H441.407C440.767 427.809 440.121 427.622 439.476 427.443C439.471 427.472 439.467 427.5 439.463 427.528ZM288.194 411.326C287.481 414.694 286.813 418.161 286.202 421.714C286.534 422.82 286.87 423.931 287.212 425.047C287.516 426.038 287.819 427.02 288.121 428H289.072C290.408 427.048 291.709 425.91 292.768 424.571C292.675 424.275 292.581 423.979 292.489 423.681C291.052 419.021 289.712 414.391 288.518 409.818C288.409 410.319 288.302 410.821 288.194 411.326ZM248.57 427.433C247.912 427.615 247.253 427.805 246.6 428H248.444C248.469 427.813 248.511 427.624 248.57 427.433ZM449.365 422.566C444.914 422.485 441.522 422.756 440.203 422.885C440.014 424.013 439.831 425.149 439.652 426.292C443.015 426.827 446.161 427.382 449.071 427.938C449.145 426.129 449.242 424.338 449.365 422.566ZM349.359 370.304C348.998 372.103 348.574 374.138 348.1 376.388C350.237 381.128 352.072 386.256 353.525 391.693C355.807 400.24 357.161 409.537 357.536 419.101C357.539 419.17 357.541 419.239 357.543 419.308C360.912 420.87 365.533 423.573 366.921 427.111C367.948 422.801 361.318 418.16 361.316 418.158C363.513 418.944 365.445 419.707 367.143 420.441C366.705 414.02 365.848 407.849 364.525 402.124C362.954 395.332 360.745 389.163 358.052 383.783C355.593 378.79 352.74 374.477 349.863 370.92C349.695 370.712 349.527 370.507 349.359 370.304ZM545.567 378.707C545.808 385.043 546.002 392.034 546.164 399.5C546.319 406.648 546.459 414.23 546.653 422.123C550.725 423.487 553.751 424.926 555.975 426.232C555.968 425.957 555.959 425.682 555.953 425.406C555.948 425.166 555.936 424.932 555.929 424.693C555.023 418.322 553.924 412.174 552.685 406.326C550.522 396.133 547.996 386.838 545.567 378.707ZM493.416 423.699C493.388 424.129 493.36 424.559 493.329 424.99C494.134 425.318 494.854 425.62 495.477 425.89C495.469 425.697 495.462 425.504 495.454 425.312C494.69 424.757 494.014 424.219 493.416 423.699ZM473.341 419.872C473.271 420.532 473.203 421.195 473.137 421.862C476.311 423.005 479.061 424.283 481.441 425.615C481.448 425.529 481.454 425.443 481.461 425.356C479.163 423.077 475.876 421.156 473.341 419.872ZM304.075 355.982C303.172 359.113 301.846 363.14 300.293 367.903C298.399 373.711 296.144 380.677 293.884 388.592C294.415 391.252 295.01 393.964 295.667 396.724C296.837 401.635 298.198 406.701 299.693 411.882C299.802 408.518 299.953 405.263 300.127 402.14C300.561 394.379 301.115 387.425 301.698 381.595C302.282 375.764 302.878 371.069 303.477 367.809C304.076 364.548 304.69 362.71 305.345 362.71C305.688 362.71 306.028 363.214 306.352 364.168C306.894 361.801 307.449 360.5 308.034 360.5C308.774 360.5 309.506 362.575 310.111 366.294C310.717 370.013 311.207 375.392 311.518 382.035C311.828 388.678 311.934 396.559 311.986 405.277C312.014 409.762 312.023 414.469 312.053 419.338C312.409 419.192 312.772 419.044 313.143 418.896C313.136 418.901 312.694 419.245 312.057 419.825C312.068 421.626 312.083 423.449 312.102 425.291C313.219 424.433 314.689 423.483 316.621 422.462C316.499 414.491 316.686 406.844 317.009 399.698C316.632 396.147 316.237 392.846 315.843 389.836C315.059 383.846 314.305 378.997 313.906 375.59C313.508 372.183 313.463 370.21 314.045 370.029C314.627 369.85 315.768 371.49 317.198 374.677C317.409 375.147 317.625 375.652 317.848 376.189C317.798 375.795 317.751 375.416 317.708 375.051C317.258 371.202 317.207 368.974 317.864 368.77C318.17 368.675 318.611 369.027 319.16 369.792C319.17 369.691 319.18 369.591 319.191 369.491C316.019 365.61 312.822 362.543 309.991 360.125C307.639 358.556 305.647 357.162 304.075 355.982ZM197.633 420.423C197.195 421.046 196.632 421.73 195.91 422.465C195.878 423.149 195.847 423.839 195.818 424.533C196.447 424.285 197.117 424.025 197.826 423.76C197.753 422.644 197.689 421.531 197.633 420.423ZM218.116 422.006C216.711 422.644 215.236 423.378 213.749 424.215C215.242 423.791 216.737 423.425 218.222 423.109C218.187 422.741 218.152 422.373 218.116 422.006ZM472.947 423.857C473.384 423.972 473.822 424.09 474.259 424.214C473.831 423.973 473.403 423.741 472.979 423.517C472.968 423.63 472.958 423.744 472.947 423.857ZM217.741 418.438C216.278 419.063 212.739 420.668 209.59 422.864C209.617 423.248 209.643 423.632 209.672 424.017C212.112 422.862 214.874 421.778 217.999 420.824C217.917 420.024 217.83 419.229 217.741 418.438ZM97.38 419.155C97.3744 422.119 96.5514 423.246 95.3048 423.421C95.2946 423.545 95.283 423.67 95.2726 423.794C95.9475 423.421 96.6323 423.011 97.3107 422.558C97.402 421.247 97.4827 419.942 97.5539 418.643C97.4952 418.813 97.4388 418.985 97.38 419.155ZM588.194 411.326C587.653 413.879 587.139 416.49 586.655 419.151C588.409 421.043 590.476 422.52 592.481 423.654C591.046 419.004 589.71 414.382 588.518 409.818C588.409 410.319 588.302 410.821 588.194 411.326ZM565.307 417.204C565.598 418.741 565.874 420.295 566.136 421.863C566.172 421.882 566.209 421.902 566.245 421.921C565.946 419.737 565.627 417.575 565.29 415.437C565.295 416.023 565.301 416.613 565.307 417.204ZM480.711 377.303C480.235 379.558 479.722 381.99 479.184 384.583C477.539 392.499 475.667 401.9 474.246 412.395C473.96 414.511 473.692 416.672 473.448 418.874C476.386 419.484 479.186 420.203 481.777 420.96C482.28 413.037 482.415 405.331 482.207 397.968C482.005 390.722 481.468 383.8 480.711 377.303ZM125.962 413.783C125.218 416.144 124.451 418.538 123.671 420.957C124.4 420.603 125.144 420.258 125.899 419.928C125.926 417.854 125.947 415.804 125.962 413.783ZM493.763 416.678C493.728 417.746 493.682 418.819 493.631 419.896C494.162 420.22 494.703 420.539 495.249 420.855C495.188 419.673 495.12 418.506 495.047 417.357C494.608 417.115 494.178 416.888 493.763 416.678ZM210.528 377.303C209.772 383.8 209.234 390.722 209.032 397.968C208.833 405.059 208.948 412.468 209.406 420.083C212.034 419.397 214.827 418.773 217.723 418.272C217.498 416.278 217.254 414.318 216.993 412.395C215.573 401.9 213.7 392.499 212.056 384.583C211.517 381.99 211.004 379.558 210.528 377.303ZM327.261 381.573C327.322 384.886 327.36 388.382 327.387 392.032C328.974 398.356 330.428 405.78 331.552 413.989C331.821 415.952 332.068 417.96 332.296 420.009C332.323 419.952 332.347 419.894 332.372 419.837C332.852 415.507 333.482 411.341 334.212 407.376C334.545 405.57 334.896 403.805 335.264 402.083C333.56 395.566 331.327 389.602 328.679 384.312C328.219 383.378 327.744 382.465 327.261 381.573ZM197.434 415.231C197.089 415.37 196.709 415.527 196.301 415.706C196.23 416.724 196.163 417.757 196.102 418.804C196.588 418.485 197.062 418.166 197.519 417.845C197.485 416.971 197.457 416.1 197.434 415.231ZM493.849 406.091C493.903 409.349 493.881 412.659 493.781 416.01C494.184 416.151 494.587 416.297 494.989 416.448C494.924 415.464 494.852 414.494 494.777 413.538C494.497 410.881 494.182 408.39 493.849 406.091ZM197.39 406.095C197.058 408.39 196.741 410.876 196.461 413.527C196.415 414.119 196.371 414.716 196.328 415.318C196.696 415.206 197.062 415.099 197.427 414.997C197.351 411.993 197.341 409.023 197.39 406.095ZM112.91 365.682C111.387 372.104 109.751 378.5 108 384.862C108.515 388.937 108.914 393.153 109.169 397.489C109.466 402.551 109.578 407.771 109.49 413.104C110.339 410.622 111.156 408.195 111.938 405.827C112.857 392.44 113.188 379.039 112.91 365.682ZM325.794 356.474C326.182 359.43 326.508 363.121 326.759 367.423C329.77 370.712 332.726 374.581 335.412 378.997C334.858 374.806 334.326 371.117 333.895 368.009C331.698 364.204 329.332 360.813 326.951 357.868C326.566 357.392 326.18 356.927 325.794 356.474ZM338.634 360.411C340.557 362.922 342.417 365.671 344.153 368.651C344.451 369.169 344.744 369.694 345.034 370.225C345.524 369.054 345.995 367.986 346.436 367.024C344.724 365.233 343.055 363.693 341.509 362.372C340.469 361.678 339.508 361.023 338.634 360.411ZM121.276 231.389C119.959 241.931 116.503 253.041 113.097 262.95C111.042 265.784 110.367 267.645 108.885 268.23C108.313 270.036 107.76 271.839 107.238 273.657C110.574 285.85 113.322 298.204 115.504 310.675C119.497 284.818 121.508 258.672 121.331 232.55C121.313 232.163 121.294 231.776 121.276 231.389ZM119.564 165.186C117.583 165.659 115.344 166.567 112.398 168.146C107.143 173.239 102.248 181.955 92.9494 179.586C91.5283 180.77 90.1207 181.976 88.7677 183.233C87.4765 195.966 87.6328 208.814 88.9142 221.524C89.0157 221.792 89.1166 222.061 89.2189 222.328C95.7549 237.375 101.264 252.801 105.792 268.508C105.917 268.155 106.043 267.803 106.169 267.452C105.184 264.773 104.272 260.189 105.179 258.715C106.128 240.178 108.498 218.959 119.16 208.493C119.137 208.249 119.126 208.021 119.1 207.77C119.179 207.955 119.231 208.159 119.306 208.346C119.386 208.268 119.462 208.188 119.543 208.112C119.478 208.236 119.422 208.344 119.359 208.466C119.715 209.365 120.027 210.286 120.301 211.227C119.589 195.889 119.067 180.501 119.564 165.186ZM119.175 208.818C115.375 216.18 114.793 220.864 113.838 236.862C118.763 221.85 119.93 217.228 119.175 208.818ZM58.3107 206.655C60.8867 214.095 63.8443 217.463 74.5578 227.89C67.3268 214.825 64.9145 211.138 58.3107 206.655Z" fill="url(#paint0_linear_5920_1224)"/>
<path d="M202.156 61.4795C202.138 61.4947 202.12 61.5092 202.102 61.5244C202.12 61.5079 202.138 61.4921 202.156 61.4756V61.4795Z" fill="#00892C"/>
<path d="M202.156 61.4795C202.138 61.4947 202.12 61.5092 202.102 61.5244C202.12 61.5079 202.138 61.4921 202.156 61.4756V61.4795Z" fill="url(#paint1_linear_5920_1224)"/>
<defs>
<linearGradient id="paint0_linear_5920_1224" x1="344.002" y1="0" x2="344.002" y2="441" gradientUnits="userSpaceOnUse">
<stop offset="0.836538" stop-opacity="0"/>
<stop offset="1" stop-opacity="0.25"/>
</linearGradient>
<linearGradient id="paint1_linear_5920_1224" x1="344.002" y1="0" x2="344.002" y2="441" gradientUnits="userSpaceOnUse">
<stop offset="0.836538" stop-opacity="0"/>
<stop offset="1" stop-opacity="0.25"/>
</linearGradient>
</defs>
</svg>
