<svg width="161" height="245" viewBox="0 0 161 245" fill="none" xmlns="http://www.w3.org/2000/svg">
<path fill-rule="evenodd" clip-rule="evenodd" d="M51.957 22C51.957 22 57.957 64 70.957 90C71.337 90.75 71.6871 91.5203 72.0371 92.2803C74.3871 68.6403 79.2673 43.4095 88.9473 24.0195C88.6773 25.1895 78.017 71.37 82.957 100C83.417 102.66 83.7774 105.37 84.0674 108.09C90.9174 90.14 101.107 80.2301 101.527 79.8301C101.317 80.3101 94.4671 95.8999 91.457 117.47C111.817 79.1799 138.118 72.2098 138.938 72.0098C115.618 87.3597 99.8472 112.12 91.8271 143.06C104.307 126.2 117.318 122.19 117.938 122.01C117.248 122.51 88.9473 150 93 225C92.9403 225.619 92.8904 226.236 92.8496 226.851C93.0566 226.997 93.2619 227.146 93.4629 227.298C93.5337 225.621 93.492 224.39 93.4912 224.368C93.9417 225.613 94.2231 226.843 94.3848 228.029C95.9305 229.312 97.2694 230.712 98.3633 232H98.8574C97.6513 228.501 97.8027 226.473 97.8027 226.473C99.0107 229.163 100.86 230.304 102.327 230.78V230.776C101.43 228.158 100.546 226.106 98.7744 224.789C96.5076 223.105 94.5645 224.368 94.5645 224.368C94.8885 223.105 98.4733 220.469 102.02 225.816C100.501 221.275 99.0413 219.388 98.9531 219.273C101.026 221.143 102.561 224.322 103.691 227.795C102.811 222.625 101.013 218.886 101.013 218.886C104.245 221.715 106.92 228.499 107.166 229.139C105.087 222.427 105.155 217.13 105.155 217.13C106.098 221.088 107.578 225.11 108.627 227.729C107.442 218.527 105.111 214.728 105.084 214.685C107.247 217.237 109.838 225.404 110.687 229.64C113.727 225.29 110.307 216.393 110.158 216.006C113.742 220.959 115.739 228.068 116.634 232H116.988C117.598 226.088 114.029 219.19 113.922 218.979C118.33 222.419 120.031 229.089 120.583 232H121.218C122.61 225.855 119.738 218.67 119.663 218.482C121.962 221.969 124.259 231.421 124.259 231.421C123.491 220.469 125.405 213 125.405 213C126.173 225.446 129.236 228.933 129.236 228.933C131.143 224.965 130.392 214.078 130.386 213.994C131.83 217.752 132.839 227.458 133.247 232H133.987C136.531 221.965 141.687 217.631 141.869 217.484C140.21 222.531 138.547 228.879 137.756 232H138.412C142.287 226.326 147.885 225.465 148 225.45C147.89 225.518 141.792 229.37 140.043 239.479C143.553 237.147 147.353 237.421 147.353 237.421C147.353 237.421 143.465 237.811 140 244.195V245H8.41992C4.85737 237.842 0.647461 237.421 0.647461 237.421C0.647461 237.421 4.44646 237.148 7.95703 239.48C6.20817 229.371 0.11 225.517 0 225.45C0.114523 225.465 5.71287 226.326 9.58789 232H10.2441C9.45283 228.879 7.79042 222.531 6.13086 217.484C6.3092 217.628 11.468 221.962 14.0127 232H14.7529C15.1615 227.458 16.1704 217.752 17.6143 213.994C17.6115 214.034 16.8533 224.957 18.7637 228.933C18.7637 228.933 21.8273 225.446 22.5947 213C22.5947 213 24.5086 220.47 23.7412 231.421C23.7542 231.368 26.044 221.959 28.3369 218.482C28.2648 218.662 25.3892 225.852 26.7822 232H27.418C27.9703 229.088 29.6696 222.419 34.0781 218.979C33.9743 219.184 30.4016 226.086 31.0117 232H31.3672C32.2625 228.068 34.2582 220.959 37.8418 216.007C37.6918 216.397 34.2735 225.291 37.3135 229.64C38.1621 225.404 40.7527 217.236 42.916 214.685C42.9013 214.708 40.561 218.503 39.373 227.729C40.4225 225.109 41.9024 221.089 42.8447 217.131C42.8452 217.168 42.9058 222.451 40.834 229.139C41.0805 228.497 43.7557 221.716 46.9873 218.887C46.9785 218.905 45.1873 222.638 44.3086 227.796C45.3237 224.676 48.9077 219.909 50.6719 218C54.1973 159.598 18.7752 125.476 17.9873 124.73C18.8424 124.972 37.2287 130.724 51.2666 157.23C43.5966 112 23.957 89.9297 23.957 89.9297C23.957 89.9297 45.457 103.37 58.667 144.33C52.507 105.3 35.477 74.11 7.95703 56C7.95703 56 43.7773 64.7703 64.5273 122.07C60.2373 73.8303 47.487 49.58 51.957 22ZM94.5293 229.495C94.5808 230.371 94.5699 231.21 94.5195 232H95.9902C95.5418 231.08 95.035 230.238 94.5293 229.495ZM50.6719 221.5C50.4399 221.618 48.4131 224.321 48.1719 224.5C46.4002 225.816 46.57 228.158 45.6729 230.776V230.78C47.1399 230.305 48.9893 229.164 50.1973 226.474C50.1995 226.504 50.3404 228.528 49.1436 232H49.6367C50.1952 231.342 50.8167 230.655 51.498 229.97C51.0302 228.06 51.2439 223.338 50.6719 221.5ZM92.8232 227.288C92.7427 228.636 92.7029 229.968 92.6953 231.264C92.7995 231.408 92.9061 231.549 93.0166 231.685C93.236 230.451 93.3593 229.158 93.4268 228.007C93.2144 227.743 93.0108 227.503 92.8232 227.288ZM50.6719 218C50.0946 218.952 46.966 222.869 45.9805 225.816C47.1687 224.025 49.5991 221.851 50.6719 221.5C50.3729 220.593 50.9926 218.888 50.6719 218Z" fill="#00892C"/>
<path fill-rule="evenodd" clip-rule="evenodd" d="M51.957 22C51.957 22 57.957 64 70.957 90C71.337 90.75 71.6871 91.5203 72.0371 92.2803C74.3871 68.6403 79.2673 43.4095 88.9473 24.0195C88.6773 25.1895 78.017 71.37 82.957 100C83.417 102.66 83.7774 105.37 84.0674 108.09C90.9174 90.14 101.107 80.2301 101.527 79.8301C101.317 80.3101 94.4671 95.8999 91.457 117.47C111.817 79.1799 138.118 72.2098 138.938 72.0098C115.618 87.3597 99.8472 112.12 91.8271 143.06C104.307 126.2 117.318 122.19 117.938 122.01C117.248 122.51 88.9473 150 93 225C92.9403 225.619 92.8904 226.236 92.8496 226.851C93.0566 226.997 93.2619 227.146 93.4629 227.298C93.5337 225.621 93.492 224.39 93.4912 224.368C93.9417 225.613 94.2231 226.843 94.3848 228.029C95.9305 229.312 97.2694 230.712 98.3633 232H98.8574C97.6513 228.501 97.8027 226.473 97.8027 226.473C99.0107 229.163 100.86 230.304 102.327 230.78V230.776C101.43 228.158 100.546 226.106 98.7744 224.789C96.5076 223.105 94.5645 224.368 94.5645 224.368C94.8885 223.105 98.4733 220.469 102.02 225.816C100.501 221.275 99.0413 219.388 98.9531 219.273C101.026 221.143 102.561 224.322 103.691 227.795C102.811 222.625 101.013 218.886 101.013 218.886C104.245 221.715 106.92 228.499 107.166 229.139C105.087 222.427 105.155 217.13 105.155 217.13C106.098 221.088 107.578 225.11 108.627 227.729C107.442 218.527 105.111 214.728 105.084 214.685C107.247 217.237 109.838 225.404 110.687 229.64C113.727 225.29 110.307 216.393 110.158 216.006C113.742 220.959 115.739 228.068 116.634 232H116.988C117.598 226.088 114.029 219.19 113.922 218.979C118.33 222.419 120.031 229.089 120.583 232H121.218C122.61 225.855 119.738 218.67 119.663 218.482C121.962 221.969 124.259 231.421 124.259 231.421C123.491 220.469 125.405 213 125.405 213C126.173 225.446 129.236 228.933 129.236 228.933C131.143 224.965 130.392 214.078 130.386 213.994C131.83 217.752 132.839 227.458 133.247 232H133.987C136.531 221.965 141.687 217.631 141.869 217.484C140.21 222.531 138.547 228.879 137.756 232H138.412C142.287 226.326 147.885 225.465 148 225.45C147.89 225.518 141.792 229.37 140.043 239.479C143.553 237.147 147.353 237.421 147.353 237.421C147.353 237.421 143.465 237.811 140 244.195V245H8.41992C4.85737 237.842 0.647461 237.421 0.647461 237.421C0.647461 237.421 4.44646 237.148 7.95703 239.48C6.20817 229.371 0.11 225.517 0 225.45C0.114523 225.465 5.71287 226.326 9.58789 232H10.2441C9.45283 228.879 7.79042 222.531 6.13086 217.484C6.3092 217.628 11.468 221.962 14.0127 232H14.7529C15.1615 227.458 16.1704 217.752 17.6143 213.994C17.6115 214.034 16.8533 224.957 18.7637 228.933C18.7637 228.933 21.8273 225.446 22.5947 213C22.5947 213 24.5086 220.47 23.7412 231.421C23.7542 231.368 26.044 221.959 28.3369 218.482C28.2648 218.662 25.3892 225.852 26.7822 232H27.418C27.9703 229.088 29.6696 222.419 34.0781 218.979C33.9743 219.184 30.4016 226.086 31.0117 232H31.3672C32.2625 228.068 34.2582 220.959 37.8418 216.007C37.6918 216.397 34.2735 225.291 37.3135 229.64C38.1621 225.404 40.7527 217.236 42.916 214.685C42.9013 214.708 40.561 218.503 39.373 227.729C40.4225 225.109 41.9024 221.089 42.8447 217.131C42.8452 217.168 42.9058 222.451 40.834 229.139C41.0805 228.497 43.7557 221.716 46.9873 218.887C46.9785 218.905 45.1873 222.638 44.3086 227.796C45.3237 224.676 48.9077 219.909 50.6719 218C54.1973 159.598 18.7752 125.476 17.9873 124.73C18.8424 124.972 37.2287 130.724 51.2666 157.23C43.5966 112 23.957 89.9297 23.957 89.9297C23.957 89.9297 45.457 103.37 58.667 144.33C52.507 105.3 35.477 74.11 7.95703 56C7.95703 56 43.7773 64.7703 64.5273 122.07C60.2373 73.8303 47.487 49.58 51.957 22ZM94.5293 229.495C94.5808 230.371 94.5699 231.21 94.5195 232H95.9902C95.5418 231.08 95.035 230.238 94.5293 229.495ZM50.6719 221.5C50.4399 221.618 48.4131 224.321 48.1719 224.5C46.4002 225.816 46.57 228.158 45.6729 230.776V230.78C47.1399 230.305 48.9893 229.164 50.1973 226.474C50.1995 226.504 50.3404 228.528 49.1436 232H49.6367C50.1952 231.342 50.8167 230.655 51.498 229.97C51.0302 228.06 51.2439 223.338 50.6719 221.5ZM92.8232 227.288C92.7427 228.636 92.7029 229.968 92.6953 231.264C92.7995 231.408 92.9061 231.549 93.0166 231.685C93.236 230.451 93.3593 229.158 93.4268 228.007C93.2144 227.743 93.0108 227.503 92.8232 227.288ZM50.6719 218C50.0946 218.952 46.966 222.869 45.9805 225.816C47.1687 224.025 49.5991 221.851 50.6719 221.5C50.3729 220.593 50.9926 218.888 50.6719 218Z" fill="url(#paint0_linear_5920_1222)"/>
<defs>
<linearGradient id="paint0_linear_5920_1222" x1="74" y1="22" x2="74" y2="245" gradientUnits="userSpaceOnUse">
<stop offset="0.653846" stop-opacity="0"/>
<stop offset="1" stop-opacity="0.25"/>
</linearGradient>
</defs>
</svg>
