<svg width="684" height="91" viewBox="0 0 684 91" fill="none" xmlns="http://www.w3.org/2000/svg">
<path d="M38.8937 8.61014C26.1111 11.1612 6.9054 0 0 0H683.691C674.604 5.44674 672.083 16.8058 669.378 17.4321C658.263 19.0509 647.404 22.2812 636.001 27.7465C620.108 31.3815 595.343 35.065 590.161 25.6195C588.761 23.0678 588.761 18.9479 587.684 16.0697C586.607 13.1916 584.517 11.6034 581.304 10.8092C578.091 10.0151 573.781 9.39635 570.275 10.2861C554.739 14.228 537.567 22.0946 526.672 25.0462C513.609 28.5853 464.63 48.0046 453.584 28.8924C451.108 24.6087 451.668 15.7567 446.422 15.0804C438.608 14.0729 423.735 11.2347 377.658 17.3854C348.115 21.329 334.348 21.4464 316.913 24.9106C288.513 30.5538 254.407 51.6801 233.646 34.9377C228.57 30.8444 228.752 23.8596 223.37 20.8701C215.839 16.687 192.018 7.22616 147.788 16.6178C129.612 20.4773 117.875 27.4808 99.1419 28.2702C75.4465 29.2688 60.1909 42.0439 55.5965 33.2567C53.5718 29.3843 62.75 22.6936 59.2164 13.9056C58.3214 11.6797 56.3666 9.91156 52.5239 9.04849C48.6811 8.18542 43.0542 7.77982 38.8937 8.61014Z" fill="url(#paint0_linear_5921_1231)"/>
<defs>
<linearGradient id="paint0_linear_5921_1231" x1="341.963" y1="-4.35741e-08" x2="341.729" y2="41.2684" gradientUnits="userSpaceOnUse">
<stop stop-color="#014517"/>
<stop offset="1" stop-color="#014517" stop-opacity="0"/>
</linearGradient>
</defs>
</svg>
