<svg width="24" height="25" fill="none" xmlns="http://www.w3.org/2000/svg"><g clip-path="url(#prefix__clip0_32_45)"><path fill="#45556C" d="M-19.063-13.301h56.06v56.748h-56.06z"/><path d="M20.07 10.202v6.596l-2.474.824-2.548-4.534c-.214-.38-.816-.19-.75.255l.824 7.577-8.244-3.298.948-6.645a5.705 5.705 0 015.647-4.897h6.596l-1.302 1.954a2.463 2.463 0 011.302 2.168zM4.403 7.729h2.952a7.176 7.176 0 011.509-1.65h-4.46a.827.827 0 00-.825.825c0 .454.37.825.824.825zm1.517 4.946H2.755a.827.827 0 00-.824.825c0 .453.37.824.824.824h2.927l.24-1.649zM3.58 11.026h2.572l.041-.28c.066-.478.182-.932.338-1.369H3.58a.827.827 0 00-.825.825c0 .453.371.824.825.824z" fill="#99A1AF"/></g><defs><clipPath id="prefix__clip0_32_45"><rect y=".5" width="24" height="24" rx="12" fill="#fff"/></clipPath></defs></svg>