<svg width="159" height="84" viewBox="0 0 159 84" fill="none" xmlns="http://www.w3.org/2000/svg">
<path d="M59.1588 13.1593C44.4062 25.8203 42.9062 21.3209 22.9069 25.8209C20.3529 26.3955 10.9062 25.8209 7.90625 30.3203C4.35413 35.6478 3.52272 39.0203 2.38515 40.5637C-0.185117 48.512 -2.16056 59.3544 4.65903 67.0567C10.4526 73.6003 16.0902 81.7383 24.2589 82.5355C30.1898 83.1142 35.8336 83.6299 40.5838 81.6467C55.2727 75.5141 70.0948 63.8805 94.517 63.0481C133.398 61.723 142.059 62.0303 149.89 57.5881L150.035 57.5062C153.651 55.4559 158.077 52.9459 158.096 48.1861C158.151 34.0911 156.03 16.0075 147.083 7.41651C143.652 4.12234 139.648 0.692039 130.919 0.808116C101.631 1.19756 80.6982 -5.32642 59.1588 13.1593Z" fill="url(#paint0_radial_5923_1359)"/>
<defs>
<radialGradient id="paint0_radial_5923_1359" cx="0" cy="0" r="1" gradientUnits="userSpaceOnUse" gradientTransform="translate(79.0485 41.5285) rotate(90) scale(41.5285 79.0485)">
<stop stop-opacity="0.3"/>
<stop offset="1" stop-opacity="0"/>
</radialGradient>
</defs>
</svg>
