<svg width="123" height="95" viewBox="0 0 123 95" fill="none" xmlns="http://www.w3.org/2000/svg">
<path d="M65.0938 2.40315C57.1146 5.8925 47.5938 1.40486 40.755 4.09494C35.3393 6.22528 37.5855 12.1728 36.1279 14.3471C33.4179 18.3479 30.0994 24.4028 25.9224 31.1322C20.3487 36.4643 10.3831 37.9726 6.63964 45.5415C3.21105 52.4736 -5.86436 77.5255 5.66887 87.4245C9.90642 91.0616 14.5698 94.1655 20.6129 94.0718C40.8397 93.7579 55.2445 89.9118 80.9096 76.9957C97.6203 68.586 110.169 68.8819 116.43 62.5225L116.521 62.4293C119.386 59.5198 122.688 56.1665 122.762 51.6959C122.93 41.533 117.457 22.9921 108.245 13.3806C105.635 10.658 102.42 8.28398 95.3232 7.69999C71.2426 5.71856 81.0938 -4.59375 65.0938 2.40315Z" fill="url(#paint0_radial_5923_1357)"/>
<defs>
<radialGradient id="paint0_radial_5923_1357" cx="0" cy="0" r="1" gradientUnits="userSpaceOnUse" gradientTransform="translate(61.3829 47.0369) rotate(90.3534) scale(46.8702 63.5098)">
<stop stop-opacity="0.3"/>
<stop offset="1" stop-opacity="0"/>
</radialGradient>
</defs>
</svg>
