<svg width="135" height="110" viewBox="0 0 135 110" fill="none" xmlns="http://www.w3.org/2000/svg">
<path d="M31.3694 32.2294C22.0706 43.4453 8.94582 45.8942 8.82837 45.9453C-6.10845 52.4453 2.32718 66.6806 2.78006 69.9663C4.08212 76.2501 5.9773 80.8564 8.83084 84.2522C13.2523 88.1342 18.2082 90.1168 22.0706 91.7773C29.1845 94.8354 31.4048 103.656 38.3733 107.25C42.3548 109.303 48.6868 111.396 59.0444 108.571C87.356 100.85 121.914 82.4349 131.564 60.7038C133.503 56.3383 136.027 46.0973 133.553 33.3959C130.895 19.7535 126.324 10.1223 120.735 3.7908C119.257 2.11568 117.414 -0.354313 110.963 0.0424954C78.6432 2.03043 56.5875 1.81211 31.3694 32.2294Z" fill="url(#paint0_radial_5923_1356)"/>
<defs>
<radialGradient id="paint0_radial_5923_1356" cx="0" cy="0" r="1" gradientUnits="userSpaceOnUse" gradientTransform="translate(67.2904 54.9713) rotate(90) scale(54.9713 67.2904)">
<stop stop-opacity="0.3"/>
<stop offset="1" stop-opacity="0"/>
</radialGradient>
</defs>
</svg>
