<svg width="239" height="137" viewBox="0 0 239 137" fill="none" xmlns="http://www.w3.org/2000/svg">
<path d="M67.2703 29.0458C34.8737 43.6809 40.6343 41.6244 37.6261 42.5234C34.1699 47.1531 16.5289 51.9558 14.9989 53.3434C12.0551 55.9004 11.7334 61.6268 5.62686 66.5234C1.02641 70.2124 -1.5597 73.5488 1.02491 88.225C3.99311 105.079 9.21825 126.19 20.5298 130.907C27.4607 133.797 33.1292 135.837 47.5783 135.771C82.7395 135.613 110.701 141.001 126.866 127.412C164.125 96.0924 177.999 106.555 196.717 96.0924C221.508 82.2358 237.058 74.5553 232.823 70.1925C226.347 63.5234 240.125 62.0234 237.764 55.5672C229.536 33.0736 235.472 8.95346 226.347 3.89169C222.958 2.01139 218.412 -0.105508 203.8 0.00408317C171.331 0.247611 144.902 1.18632 124.632 7.8888C109.701 12.8262 85.8155 20.6681 67.2703 29.0458Z" fill="url(#paint0_radial_5923_1358)"/>
<defs>
<radialGradient id="paint0_radial_5923_1358" cx="0" cy="0" r="1" gradientUnits="userSpaceOnUse" gradientTransform="translate(119.02 68.3473) rotate(90) scale(68.3473 119.02)">
<stop stop-opacity="0.3"/>
<stop offset="1" stop-opacity="0"/>
</radialGradient>
</defs>
</svg>
